<?xml version="1.0" standalone="no"?>
<!DOCTYPE svg PUBLIC "-//W3C//DTD SVG 1.1//EN" "http://www.w3.org/Graphics/SVG/1.1/DTD/svg11.dtd" >
<!--
2013-9-30: Created.
-->
<svg>
<metadata>
Created by iconfont
</metadata>
<defs>

<font id="iconfont" horiz-adv-x="1024" >
  <font-face
    font-family="iconfont"
    font-weight="500"
    font-stretch="normal"
    units-per-em="1024"
    ascent="896"
    descent="-128"
  />
    <missing-glyph />
    
    <glyph glyph-name="x" unicode="x" horiz-adv-x="1001"
d="M281 543q-27 -1 -53 -1h-83q-18 0 -36.5 -6t-32.5 -18.5t-23 -32t-9 -45.5v-76h912v41q0 16 -0.5 30t-0.5 18q0 13 -5 29t-17 29.5t-31.5 22.5t-49.5 9h-133v-97h-438v97zM955 310v-52q0 -23 0.5 -52t0.5 -58t-10.5 -47.5t-26 -30t-33 -16t-31.5 -4.5q-14 -1 -29.5 -0.5
t-29.5 0.5h-32l-45 128h-439l-44 -128h-29h-34q-20 0 -45 1q-25 0 -41 9.5t-25.5 23t-13.5 29.5t-4 30v167h911zM163 247q-12 0 -21 -8.5t-9 -21.5t9 -21.5t21 -8.5q13 0 22 8.5t9 21.5t-9 21.5t-22 8.5zM316 123q-8 -26 -14 -48q-5 -19 -10.5 -37t-7.5 -25t-3 -15t1 -14.5
t9.5 -10.5t21.5 -4h37h67h81h80h64h36q23 0 34 12t2 38q-5 13 -9.5 30.5t-9.5 34.5q-5 19 -11 39h-368zM336 498v228q0 11 2.5 23t10 21.5t20.5 15.5t34 6h188q31 0 51.5 -14.5t20.5 -52.5v-227h-327z" />
    

    
    <glyph glyph-name="jigoutuoyang" unicode="&#58985;" d="M750.933333 598.755556H568.888889c-38.4 0-71.111111-31.288889-71.111111-68.266667v-490.666667c0-15.644444 12.8-28.444444 28.444444-28.444444h268.8c15.644444 0 28.444444 12.8 28.444445 28.444444V530.488889c0 36.977778-34.133333 68.266667-72.533334 68.266667z m-71.111111-433.777778h-95.288889c-15.644444 0-28.444444 12.8-28.444444 28.444444s12.8 28.444444 28.444444 28.444445h95.288889c15.644444 0 28.444444-12.8 28.444445-28.444445s-12.8-28.444444-28.444445-28.444444z m0 180.622222h-95.288889c-15.644444 0-28.444444 12.8-28.444444 28.444444s12.8 28.444444 28.444444 28.444445h95.288889c15.644444 0 28.444444-12.8 28.444445-28.444445s-12.8-28.444444-28.444445-28.444444zM512 756.622222H274.488889c-38.4 0-71.111111-31.288889-71.111111-68.266666v-648.533334c0-15.644444 12.8-28.444444 28.444444-28.444444h325.688889c15.644444 0 28.444444 12.8 28.444445 28.444444V688.355556c-1.422222 36.977778-35.555556 68.266667-73.955556 68.266666z m-71.111111-593.066666h-95.288889c-15.644444 0-28.444444 12.8-28.444444 28.444444s12.8 28.444444 28.444444 28.444444H440.888889c15.644444 0 28.444444-12.8 28.444444-28.444444s-12.8-28.444444-28.444444-28.444444z m0 180.622222h-95.288889c-15.644444 0-28.444444 12.8-28.444444 28.444444s12.8 28.444444 28.444444 28.444445H440.888889c15.644444 0 28.444444-12.8 28.444444-28.444445s-12.8-28.444444-28.444444-28.444444z m0 180.622222h-95.288889c-15.644444 0-28.444444 12.8-28.444444 28.444444s12.8 28.444444 28.444444 28.444445H440.888889c15.644444 0 28.444444-12.8 28.444444-28.444445s-12.8-28.444444-28.444444-28.444444z"  horiz-adv-x="1024" />

    
    <glyph glyph-name="jiankanghuodong" unicode="&#58986;" d="M205.582222 647.751111h576c15.644444 0 28.444444-12.8 28.444445-28.444444 0-5.688889-1.422222-11.377778-4.266667-15.644445l-135.111111-206.222222c-7.111111-11.377778-5.688889-27.022222 4.266667-36.977778l189.155555-174.933333c11.377778-9.955556 12.8-28.444444 1.422222-39.822222-5.688889-5.688889-12.8-8.533333-21.333333-8.533334h-446.577778l-192 510.577778zM460.16 2.062222c-11.377778 0-22.755556 7.111111-27.022222 18.488889l-275.911111 702.577778c-5.688889 14.222222 1.422222 31.288889 15.644444 36.977778 14.222222 5.688889 31.288889-1.422222 36.977778-15.644445l275.911111-702.577778c5.688889-14.222222-1.422222-31.288889-15.644444-36.977777-2.844444-1.422222-5.688889-2.844444-9.955556-2.844445z"  horiz-adv-x="1024" />

    
    <glyph glyph-name="jujiashangmen" unicode="&#58989;" d="M857.6 497.777778l-312.888889 224.711111c-19.911111 14.222222-46.933333 14.222222-66.844444 0L166.4 497.777778c-12.8-8.533333-15.644444-27.022222-7.111111-39.822222 8.533333-12.8 27.022222-15.644444 39.822222-7.111112l41.244445 29.866667v-418.133333c0-15.644444 12.8-28.444444 28.444444-28.444445H412.444444v55.466667c0 61.155556 49.777778 109.511111 109.511112 109.511111s109.511111-49.777778 109.511111-109.511111v-55.466667h155.022222c15.644444 0 28.444444 12.8 28.444444 28.444445V456.533333l7.111111-5.688889c5.688889-4.266667 11.377778-5.688889 17.066667-5.688888 8.533333 0 17.066667 4.266667 22.755556 11.377777 11.377778 14.222222 8.533333 31.288889-4.266667 41.244445zM523.377778 143.644444c-29.866667 0-52.622222-24.177778-52.622222-52.622222v-55.466666h106.666666v55.466666c-1.422222 28.444444-24.177778 52.622222-54.044444 52.622222z"  horiz-adv-x="1024" />

    
    <glyph glyph-name="maibo" unicode="&#58991;" d="M518.4 192c-32 0-57.6 19.2-66.56 49.92L417.28 358.4c-3.84 11.52-12.8 12.8-16.64 12.8-3.84 0-12.8-1.28-17.92-11.52l-26.88-70.4c-10.24-26.88-35.84-44.8-65.28-44.8H217.6c-14.08 0-25.6 11.52-25.6 25.6s11.52 25.6 25.6 25.6h72.96c7.68 0 14.08 5.12 16.64 11.52l26.88 69.12c11.52 28.16 37.12 46.08 67.84 44.8 29.44-1.28 55.04-20.48 64-49.92l35.84-116.48c3.84-12.8 14.08-14.08 17.92-12.8 3.84 0 14.08 1.28 17.92 12.8l5.12 17.92c8.96 28.16 34.56 48.64 64 48.64 30.72 1.28 56.32-16.64 66.56-44.8 2.56-7.68 8.96-11.52 16.64-11.52H806.4c14.08 0 25.6-11.52 25.6-25.6s-11.52-25.6-25.6-25.6h-116.48c-28.16 0-53.76 17.92-64 44.8-3.84 11.52-14.08 11.52-17.92 11.52-3.84 0-12.8-1.28-16.64-12.8l-5.12-17.92C576 211.2 550.4 192 518.4 192zM558.08 478.72H512c-14.08 0-25.6 11.52-25.6 25.6V550.4c0 14.08 11.52 25.6 25.6 25.6s25.6-11.52 25.6-25.6v-20.48h20.48c14.08 0 25.6-11.52 25.6-25.6s-11.52-25.6-25.6-25.6z"  horiz-adv-x="1024" />

    
    <glyph glyph-name="shouye_p" unicode="&#58994;" d="M984.436364 470.109091L721.454545 735.418182c-109.381818 109.381818-286.254545 109.381818-395.636363 0L62.836364 470.109091c-18.618182-18.618182-18.618182-46.545455 0-65.163636 13.963636-13.963636 34.909091-16.290909 53.527272-9.309091V104.727273c0-90.763636 72.145455-162.909091 162.909091-162.909091h465.454546c90.763636 0 162.909091 72.145455 162.909091 162.909091V416.581818l11.636363-11.636363c9.309091-9.309091 20.945455-13.963636 32.581818-13.963637s23.272727 4.654545 32.581819 13.963637c18.618182 18.618182 18.618182 48.872727 0 65.163636zM581.818182 174.545455h-93.090909c-25.6 0-46.545455 20.945455-46.545455 46.545454v93.090909c0 25.6 20.945455 46.545455 46.545455 46.545455s46.545455-20.945455 46.545454-46.545455v-46.545454h46.545455c25.6 0 46.545455-20.945455 46.545454-46.545455s-20.945455-46.545455-46.545454-46.545454z"  horiz-adv-x="1024" />

    
    <glyph glyph-name="rijianzhaoliao" unicode="&#58995;" d="M512 704c-25.6 0-45.511111 19.911111-45.511111 45.511111s19.911111 45.511111 45.511111 45.511111c25.6 0 45.511111-19.911111 45.511111-45.511111s-19.911111-45.511111-45.511111-45.511111z m264.533333-128c-15.644444 19.911111-12.8 48.355556 7.111111 64s48.355556 12.8 64-7.111111 12.8-48.355556-7.111111-64-48.355556-12.8-64 7.111111z m65.422223-285.866667c5.688889 24.177778 29.866667 39.822222 54.044444 34.133334 24.177778-5.688889 39.822222-29.866667 34.133333-54.044445-5.688889-24.177778-29.866667-39.822222-54.044444-34.133333s-39.822222 29.866667-34.133333 54.044444zM658.488889 59.733333c22.755556 11.377778 49.777778 1.422222 59.733333-21.333333 11.377778-22.755556 1.422222-49.777778-21.333333-59.733333-22.755556-11.377778-49.777778-1.422222-59.733333 21.333333-9.955556 22.755556-1.422222 49.777778 21.333333 59.733333z m-292.977778 0c22.755556-11.377778 31.288889-38.4 21.333333-59.733333-11.377778-22.755556-38.4-31.288889-59.733333-21.333333-22.755556 11.377778-31.288889 38.4-21.333333 59.733333 9.955556 22.755556 36.977778 32.711111 59.733333 21.333333zM182.044444 290.133333c5.688889-24.177778-9.955556-48.355556-34.133333-54.044444S99.555556 244.622222 93.866667 270.222222c-5.688889 24.177778 9.955556 48.355556 34.133333 54.044445 24.177778 5.688889 48.355556-9.955556 54.044444-34.133334z m65.422223 285.866667c-15.644444-19.911111-44.088889-22.755556-64-7.111111s-22.755556 44.088889-7.111111 64 44.088889 22.755556 64 7.111111 22.755556-45.511111 7.111111-64zM512 652.8c-153.6 0-278.755556-125.155556-278.755556-278.755556S358.4 93.866667 512 93.866667s278.755556 125.155556 278.755556 278.755555S665.6 652.8 512 652.8z m69.688889-352.711111h-92.444445c-15.644444 0-28.444444 12.8-28.444444 28.444444v92.444445c0 15.644444 12.8 28.444444 28.444444 28.444444s28.444444-12.8 28.444445-28.444444v-64h64c15.644444 0 28.444444-12.8 28.444444-28.444445s-12.8-28.444444-28.444444-28.444444z"  horiz-adv-x="1024" />

    
    <glyph glyph-name="wode_p" unicode="&#58996;" d="M837.818182 395.636364h-172.218182c11.636364 23.272727 18.618182 51.2 18.618182 79.127272V665.6c0 95.418182-76.8 172.218182-172.218182 172.218182-95.418182 0-172.218182-76.8-172.218182-172.218182V477.090909c0-27.927273 6.981818-55.854545 18.618182-79.127273H186.181818c-76.8 0-139.636364-62.836364-139.636363-139.636363v-232.727273c0-51.2 41.890909-93.090909 93.090909-93.090909h744.727272c51.2 0 93.090909 41.890909 93.090909 93.090909v232.727273c0 74.472727-62.836364 137.309091-139.636363 137.309091z m-256-325.818182h-93.090909c-25.6 0-46.545455 20.945455-46.545455 46.545454v93.090909c0 25.6 20.945455 46.545455 46.545455 46.545455s46.545455-20.945455 46.545454-46.545455v-46.545454h46.545455c25.6 0 46.545455-20.945455 46.545454-46.545455s-20.945455-46.545455-46.545454-46.545454z"  horiz-adv-x="1024" />

    
    <glyph glyph-name="shouye" unicode="&#58997;" d="M744.727273-81.454545H279.272727c-102.4 0-186.181818 83.781818-186.181818 186.181818V477.090909c0 25.6 20.945455 46.545455 46.545455 46.545455s46.545455-20.945455 46.545454-46.545455v-372.363636c0-51.2 41.890909-93.090909 93.090909-93.090909h465.454546c51.2 0 93.090909 41.890909 93.090909 93.090909V477.090909c0 25.6 20.945455 46.545455 46.545454 46.545455s46.545455-20.945455 46.545455-46.545455v-372.363636c0-102.4-83.781818-186.181818-186.181818-186.181818zM951.854545 390.981818c-11.636364 0-23.272727 4.654545-32.581818 13.963637L656.290909 667.927273c-34.909091 34.909091-81.454545 53.527273-132.654545 53.527272-48.872727 0-95.418182-18.618182-132.654546-53.527272L130.327273 404.945455c-18.618182-18.618182-46.545455-18.618182-65.163637 0s-18.618182 46.545455 0 65.163636L325.818182 735.418182c109.381818 109.381818 286.254545 109.381818 395.636363 0l262.981819-262.981818c18.618182-18.618182 18.618182-46.545455 0-65.163637-9.309091-11.636364-20.945455-16.290909-32.581819-16.290909zM581.818182 174.545455h-93.090909c-25.6 0-46.545455 20.945455-46.545455 46.545454v93.090909c0 25.6 20.945455 46.545455 46.545455 46.545455s46.545455-20.945455 46.545454-46.545455v-46.545454h46.545455c25.6 0 46.545455-20.945455 46.545454-46.545455s-20.945455-46.545455-46.545454-46.545454z"  horiz-adv-x="1024" />

    
    <glyph glyph-name="tiwen" unicode="&#58998;" d="M549.12 474.88H524.8c-14.08 0-25.6 11.52-25.6 25.6s11.52 25.6 25.6 25.6h24.32c14.08 0 25.6-11.52 25.6-25.6s-11.52-25.6-25.6-25.6zM549.12 552.96H524.8c-14.08 0-25.6 11.52-25.6 25.6s11.52 25.6 25.6 25.6h24.32c14.08 0 25.6-11.52 25.6-25.6s-11.52-25.6-25.6-25.6zM512 51.2c-92.16 0-166.4 71.68-166.4 161.28 0 53.76 26.88 102.4 72.96 133.12V625.92c0 49.92 42.24 90.88 94.72 90.88s94.72-40.96 94.72-90.88v-281.6c44.8-29.44 71.68-79.36 71.68-131.84C678.4 122.88 604.16 51.2 512 51.2z m1.28 614.4c-24.32 0-43.52-17.92-43.52-39.68v-294.4c0-8.96-5.12-16.64-11.52-21.76l-7.68-5.12c-33.28-20.48-52.48-55.04-52.48-92.16 0-60.16 51.2-110.08 115.2-110.08s115.2 48.64 115.2 110.08c0 37.12-19.2 70.4-51.2 90.88l-7.68 5.12c-7.68 5.12-11.52 12.8-11.52 21.76V625.92c-2.56 21.76-21.76 39.68-44.8 39.68z m-69.12-335.36zM545.28 171.52H499.2c-14.08 0-25.6 11.52-25.6 25.6V243.2c0 14.08 11.52 25.6 25.6 25.6s25.6-11.52 25.6-25.6v-20.48h20.48c14.08 0 25.6-11.52 25.6-25.6s-11.52-25.6-25.6-25.6z"  horiz-adv-x="1024" />

    
    <glyph glyph-name="wode" unicode="&#59000;" d="M581.818182 174.545455h-46.545455v46.545454c0 25.6-20.945455 46.545455-46.545454 46.545455s-46.545455-20.945455-46.545455-46.545455v-93.090909c0-25.6 20.945455-46.545455 46.545455-46.545455h93.090909c25.6 0 46.545455 20.945455 46.545454 46.545455s-20.945455 46.545455-46.545454 46.545455zM837.818182 407.272727h-172.218182c11.636364 23.272727 18.618182 51.2 18.618182 79.127273V677.236364C684.218182 772.654545 607.418182 849.454545 512 849.454545c-95.418182 0-172.218182-76.8-172.218182-172.218181v-188.509091c0-27.927273 6.981818-55.854545 18.618182-79.127273H186.181818c-76.8 0-139.636364-62.836364-139.636363-139.636364v-232.727272c0-51.2 41.890909-93.090909 93.090909-93.090909h744.727272c51.2 0 93.090909 41.890909 93.090909 93.090909V267.636364c0 76.8-62.836364 139.636364-139.636363 139.636363z m-404.945455 79.127273V677.236364C432.872727 721.454545 467.781818 756.363636 512 756.363636s79.127273-34.909091 79.127273-79.127272v-188.509091c0-44.218182-34.909091-79.127273-79.127273-79.127273s-79.127273 32.581818-79.127273 76.8zM884.363636 34.909091H139.636364V267.636364c0 25.6 20.945455 46.545455 46.545454 46.545454h651.636364c25.6 0 46.545455-20.945455 46.545454-46.545454v-232.727273z"  horiz-adv-x="1024" />

    
    <glyph glyph-name="xietang" unicode="&#59001;" d="M564.48 268.8h-71.68c-14.08 0-25.6 11.52-25.6 25.6v70.4c0 11.52 6.4 21.76 16.64 25.6 17.92 5.12 34.56-7.68 34.56-24.32V320H563.2c11.52 0 21.76-6.4 25.6-16.64 5.12-17.92-7.68-34.56-24.32-34.56zM506.88 115.2h-2.56c-112.64 0-203.52 83.2-203.52 184.32V307.2c1.28 35.84 14.08 72.96 34.56 106.24 38.4 60.16 133.12 211.2 133.12 211.2 7.68 12.8 21.76 21.76 37.12 21.76s28.16-7.68 37.12-21.76c0 0 94.72-149.76 133.12-209.92 20.48-33.28 33.28-70.4 34.56-106.24v-7.68c0-102.4-90.88-185.6-203.52-185.6z m-1.28 472.32c-23.04-35.84-94.72-149.76-126.72-199.68-16.64-25.6-25.6-53.76-26.88-81.92v-6.4c0-72.96 67.84-133.12 152.32-133.12h2.56c84.48 0 152.32 60.16 152.32 133.12v6.4c-1.28 26.88-10.24 56.32-26.88 81.92-32 49.92-103.68 163.84-126.72 199.68zM499.2 601.6c0-1.28 0-1.28 0 0 0-1.28 0 0 0 0z m14.08 0z"  horiz-adv-x="1024" />

    
    <glyph glyph-name="xieya" unicode="&#59002;" d="M508.16 140.8c-17.92 0-35.84 7.68-48.64 20.48l-83.2 84.48c-10.24 10.24-10.24 25.6 0 35.84s25.6 10.24 35.84 0l83.2-84.48c6.4-6.4 17.92-6.4 25.6 0 56.32 56.32 130.56 130.56 172.8 174.08 28.16 29.44 39.68 64 34.56 103.68-7.68 57.6-58.88 101.12-117.76 101.12-17.92 0-34.56-3.84-51.2-11.52-7.68-3.84-16.64-10.24-24.32-15.36-5.12-2.56-8.96-6.4-14.08-8.96-8.96-6.4-20.48-5.12-29.44 1.28 0 0-1.28 1.28-3.84 2.56-23.04 21.76-51.2 33.28-81.92 33.28-20.48 0-40.96-5.12-58.88-16.64-42.24-24.32-65.28-74.24-57.6-122.88 2.56-17.92 10.24-34.56 20.48-49.92 7.68-11.52 5.12-28.16-6.4-35.84-11.52-7.68-28.16-5.12-35.84 6.4-14.08 21.76-24.32 44.8-28.16 70.4-11.52 69.12 20.48 139.52 81.92 175.36 25.6 15.36 55.04 23.04 84.48 23.04 37.12 0 72.96-12.8 102.4-34.56 8.96 6.4 17.92 11.52 28.16 16.64 23.04 11.52 48.64 17.92 74.24 17.92 84.48 0 156.16-62.72 167.68-145.92 7.68-55.04-8.96-104.96-47.36-145.92-42.24-43.52-117.76-119.04-172.8-175.36-14.08-11.52-30.72-19.2-49.92-19.2zM564.48 332.8h-71.68c-14.08 0-25.6 11.52-25.6 25.6v70.4c0 11.52 6.4 21.76 16.64 25.6 17.92 5.12 34.56-7.68 34.56-24.32V384H563.2c11.52 0 21.76-6.4 25.6-16.64 5.12-17.92-7.68-34.56-24.32-34.56z"  horiz-adv-x="1024" />

    
    <glyph glyph-name="yuyue_p" unicode="&#59003;" d="M814.545455 34.909091h-93.09091c-25.6 0-46.545455 20.945455-46.545454 46.545454v93.09091c0 25.6 20.945455 46.545455 46.545454 46.545454s46.545455-20.945455 46.545455-46.545454v-46.545455h46.545455c25.6 0 46.545455-20.945455 46.545454-46.545455s-20.945455-46.545455-46.545454-46.545454zM488.727273 128c0 141.963636 114.036364 256 256 256 62.836364 0 118.690909-20.945455 162.909091-58.181818V616.727273c0 76.8-55.854545 139.636364-125.672728 139.636363H744.727273c0 25.6-20.945455 46.545455-46.545455 46.545455s-46.545455-20.945455-46.545454-46.545455H372.363636c0 25.6-20.945455 46.545455-46.545454 46.545455s-46.545455-20.945455-46.545455-46.545455h-39.563636C172.218182 756.363636 116.363636 693.527273 116.363636 616.727273v-512c0-9.309091 0-16.290909 2.327273-25.6v-2.327273c0-2.327273 0-4.654545 2.327273-6.981818 13.963636-55.854545 58.181818-100.072727 109.381818-104.727273h316.509091c-37.236364 44.218182-58.181818 100.072727-58.181818 162.909091z m-186.181818 442.181818h442.181818c25.6 0 46.545455-20.945455 46.545454-46.545454s-20.945455-46.545455-46.545454-46.545455H302.545455c-25.6 0-46.545455 20.945455-46.545455 46.545455s20.945455 46.545455 46.545455 46.545454z m93.090909-325.818182h-93.090909c-25.6 0-46.545455 20.945455-46.545455 46.545455s20.945455 46.545455 46.545455 46.545454h93.090909c25.6 0 46.545455-20.945455 46.545454-46.545454s-20.945455-46.545455-46.545454-46.545455z"  horiz-adv-x="1024" />

    
    <glyph glyph-name="yuyue" unicode="&#59004;" d="M393.309091 244.363636H302.545455c-20.945455 0-39.563636 11.636364-46.545455 30.254546-9.309091 32.581818 13.963636 62.836364 44.218182 62.836363h90.763636c20.945455 0 39.563636-11.636364 46.545455-30.254545 9.309091-32.581818-13.963636-62.836364-44.218182-62.836364zM837.818182 477.090909H207.127273c-25.6 0-46.545455 20.945455-46.545455 46.545455s20.945455 46.545455 46.545455 46.545454H837.818182c25.6 0 46.545455-20.945455 46.545454-46.545454s-20.945455-46.545455-46.545454-46.545455zM814.545455 34.909091h-95.418182c-23.272727 0-44.218182 18.618182-44.218182 44.218182V174.545455c0 16.290909 6.981818 32.581818 23.272727 39.563636 34.909091 18.618182 69.818182-6.981818 69.818182-39.563636v-46.545455h46.545455c16.290909 0 32.581818-6.981818 39.563636-23.272727 18.618182-34.909091-6.981818-69.818182-39.563636-69.818182zM742.4-128c-141.963636 0-256 114.036364-256 256s114.036364 256 256 256 256-114.036364 256-256-114.036364-256-256-256z m0 418.909091c-90.763636 0-162.909091-72.145455-162.909091-162.909091s72.145455-162.909091 162.909091-162.909091 162.909091 72.145455 162.909091 162.909091-72.145455 162.909091-162.909091 162.909091zM390.981818-34.909091h-151.272727C172.218182-34.909091 116.363636 27.927273 116.363636 104.727273V616.727273c0 76.8 55.854545 139.636364 123.345455 139.636363h542.254545c69.818182 0 125.672727-62.836364 125.672728-139.636363v-183.854546c0-20.945455-11.636364-39.563636-30.254546-46.545454-32.581818-9.309091-62.836364 13.963636-62.836363 44.218182v186.181818c0 27.927273-16.290909 46.545455-30.254546 46.545454H239.709091c-13.963636 0-30.254545-18.618182-30.254546-46.545454v-512c0-27.927273 16.290909-46.545455 30.254546-46.545455h148.945454c20.945455 0 39.563636-11.636364 46.545455-30.254545 9.309091-32.581818-13.963636-62.836364-44.218182-62.836364zM279.272727 665.6V747.054545c0 27.927273 11.636364 48.872727 30.254546 53.527273 32.581818 9.309091 62.836364-13.963636 62.836363-44.218182v-93.090909c0-30.254545-30.254545-53.527273-62.836363-44.218182-18.618182 6.981818-30.254545 25.6-30.254546 46.545455zM651.636364 665.6V744.727273c0 27.927273 11.636364 48.872727 30.254545 53.527272 32.581818 11.636364 62.836364-11.636364 62.836364-41.890909v-93.090909c0-30.254545-30.254545-53.527273-62.836364-44.218182-18.618182 6.981818-30.254545 25.6-30.254545 46.545455z"  horiz-adv-x="1024" />

    
    <glyph glyph-name="zhaohu" unicode="&#59005;" d="M512-48.872727c-32.581818 0-65.163636 13.963636-88.436364 37.236363L123.345455 288.581818c-51.2 53.527273-83.781818 114.036364-95.418182 179.2C6.981818 593.454545 65.163636 719.127273 174.545455 784.290909c46.545455 27.927273 100.072727 41.890909 153.6 41.890909 67.490909 0 130.327273-20.945455 183.854545-62.836363 16.290909 11.636364 32.581818 20.945455 48.872727 30.254545 41.890909 20.945455 86.109091 32.581818 132.654546 32.581818 151.272727 0 281.6-111.709091 302.545454-260.654545 13.963636-100.072727-16.290909-190.836364-86.109091-262.981818-76.8-79.127273-209.454545-214.109091-309.527272-314.181819-23.272727-25.6-55.854545-37.236364-88.436364-37.236363zM328.145455 730.763636c-37.236364 0-74.472727-9.309091-107.054546-27.927272-76.8-44.218182-116.363636-132.654545-102.4-218.763637 9.309091-48.872727 30.254545-90.763636 69.818182-130.327272 81.454545-81.454545 221.090909-223.418182 300.218182-300.218182 11.636364-11.636364 32.581818-11.636364 44.218182 0 100.072727 100.072727 232.727273 235.054545 309.527272 314.181818 51.2 51.2 69.818182 114.036364 60.509091 183.854545-13.963636 102.4-104.727273 181.527273-209.454545 181.527273-32.581818 0-62.836364-6.981818-90.763637-20.945454-13.963636-6.981818-27.927273-16.290909-44.218181-27.927273-6.981818-4.654545-16.290909-11.636364-25.6-16.290909-16.290909-11.636364-39.563636-9.309091-53.527273 2.327272 0 0-2.327273 2.327273-6.981818 4.654546-39.563636 34.909091-90.763636 55.854545-144.290909 55.854545zM581.818182 290.909091h-93.090909c-25.6 0-46.545455 20.945455-46.545455 46.545454v93.09091c0 25.6 20.945455 46.545455 46.545455 46.545454s46.545455-20.945455 46.545454-46.545454v-46.545455h46.545455c25.6 0 46.545455-20.945455 46.545454-46.545455s-20.945455-46.545455-46.545454-46.545454z"  horiz-adv-x="1024" />

    
    <glyph glyph-name="add" unicode="&#59006;" d="M935.563636 337.454545H88.436364c-25.6 0-46.545455 20.945455-46.545455 46.545455s20.945455 46.545455 46.545455 46.545455h847.127272c25.6 0 46.545455-20.945455 46.545455-46.545455s-20.945455-46.545455-46.545455-46.545455zM512-86.109091c-25.6 0-46.545455 20.945455-46.545455 46.545455V807.563636c0 25.6 20.945455 46.545455 46.545455 46.545455s46.545455-20.945455 46.545455-46.545455v-847.127272c0-25.6-20.945455-46.545455-46.545455-46.545455z"  horiz-adv-x="1024" />

    
    <glyph glyph-name="zhaohu_p" unicode="&#59007;" d="M996.072727 563.2c-20.945455 148.945455-151.272727 260.654545-302.545454 260.654545-46.545455 0-90.763636-11.636364-132.654546-32.581818-18.618182-9.309091-34.909091-20.945455-48.872727-30.254545-53.527273 39.563636-116.363636 62.836364-183.854545 62.836363-53.527273 0-107.054545-13.963636-153.6-41.890909C65.163636 719.127273 6.981818 593.454545 27.927273 467.781818c11.636364-67.490909 44.218182-128 95.418182-179.2 81.454545-81.454545 221.090909-223.418182 300.218181-300.218182 23.272727-23.272727 55.854545-37.236364 88.436364-37.236363s65.163636 13.963636 88.436364 37.236363c100.072727 100.072727 235.054545 235.054545 309.527272 314.181819 69.818182 72.145455 100.072727 160.581818 86.109091 260.654545zM581.818182 290.909091h-93.090909c-25.6 0-46.545455 20.945455-46.545455 46.545454v93.09091c0 25.6 20.945455 46.545455 46.545455 46.545454s46.545455-20.945455 46.545454-46.545454v-46.545455h46.545455c25.6 0 46.545455-20.945455 46.545454-46.545455s-20.945455-46.545455-46.545454-46.545454z"  horiz-adv-x="1024" />

    
    <glyph glyph-name="arrow" unicode="&#59008;" d="M442.514286 106.057143l230.4 230.4c25.6 25.6 25.6 65.828571 0 91.428571s-65.828571 25.6-91.428572 0l-230.4-230.4c-25.6-25.6-25.6-65.828571 0-91.428571s65.828571-25.6 91.428572 0zM442.514286 661.942857l230.4-230.4c25.6-25.6 25.6-65.828571 0-91.428571s-65.828571-25.6-91.428572 0L351.085714 570.514286c-21.942857 25.6-21.942857 65.828571 0 91.428571 25.6 25.6 65.828571 25.6 91.428572 0z"  horiz-adv-x="1024" />

    
    <glyph glyph-name="back" unicode="&#59009;" d="M330.472727 316.509091c-11.636364 0-23.272727 4.654545-32.581818 11.636364-18.618182 18.618182-18.618182 46.545455-2.327273 65.163636L663.272727 784.290909c18.618182 18.618182 46.545455 18.618182 65.163637 2.327273 18.618182-18.618182 18.618182-46.545455 2.327272-65.163637L363.054545 330.472727c-9.309091-9.309091-20.945455-13.963636-32.581818-13.963636zM698.181818-39.563636c-11.636364 0-23.272727 4.654545-32.581818 13.963636L297.890909 328.145455c-18.618182 18.618182-18.618182 46.545455 0 65.163636 18.618182 18.618182 46.545455 18.618182 65.163636 0l367.709091-356.072727c18.618182-18.618182 18.618182-46.545455 0-65.163637-9.309091-6.981818-20.945455-11.636364-32.581818-11.636363z"  horiz-adv-x="1024" />

    
    <glyph glyph-name="close" unicode="&#59010;" d="M837.818182 11.636364c-11.636364 0-23.272727 4.654545-32.581818 13.963636l-651.636364 651.636364c-18.618182 18.618182-18.618182 46.545455 0 65.163636 18.618182 18.618182 46.545455 18.618182 65.163636 0l651.636364-651.636364c18.618182-18.618182 18.618182-46.545455 0-65.163636-9.309091-9.309091-20.945455-13.963636-32.581818-13.963636zM186.181818 16.290909c-11.636364 0-23.272727 4.654545-32.581818 13.963636-18.618182 18.618182-18.618182 46.545455 0 65.163637l651.636364 646.981818c18.618182 18.618182 46.545455 18.618182 65.163636 0 18.618182-18.618182 18.618182-46.545455 0-65.163636l-651.636364-646.981819c-9.309091-9.309091-20.945455-13.963636-32.581818-13.963636z"  horiz-adv-x="1024" />

    
    <glyph glyph-name="logo" unicode="&#59011;" d="M643.812766 125.821277c97.497872 50.655319 208.612766 128 285.957447 226.042553 56.646809 71.353191 65.906383 174.842553-6.53617 230.944681C787.06383 688.476596 605.685106 520.170213 605.685106 520.170213c5.991489 5.446809-82.246809 82.791489-88.782978 87.693617-57.73617 42.485106-142.706383 73.531915-209.157447 30.502127-55.557447-35.948936-72.442553-116.017021-57.19149-175.931914 28.868085-112.204255 137.259574-233.123404 217.32766-311.012766 46.842553-45.208511 117.651064-55.557447 175.931915-25.6M248.374468 204.8c49.021277 25.6 104.578723 64.817021 143.251064 113.838298 28.323404 35.948936 33.225532 88.238298-3.268085 116.561702-68.085106 53.378723-159.046809-31.591489-159.046809-31.591489 2.723404 2.723404-41.395745 41.940426-44.119149 44.119149-28.868085 21.242553-71.353191 37.038298-104.578723 15.795744C52.834043 445.548936 44.119149 405.242553 51.744681 374.740426c14.161702-56.646809 68.629787-117.651064 108.93617-156.868086 23.421277-22.876596 58.825532-28.323404 87.693617-13.07234"  horiz-adv-x="1024" />

    
    <glyph glyph-name="shoujihao" unicode="&#59013;" d="M814.545455 197.818182H209.454545c-25.6 0-46.545455 20.945455-46.545454 46.545454s20.945455 46.545455 46.545454 46.545455h605.09091c25.6 0 46.545455-20.945455 46.545454-46.545455s-20.945455-46.545455-46.545454-46.545454zM558.545455 58.181818h-93.09091c-25.6 0-46.545455 20.945455-46.545454 46.545455s20.945455 46.545455 46.545454 46.545454h93.09091c25.6 0 46.545455-20.945455 46.545454-46.545454s-20.945455-46.545455-46.545454-46.545455zM744.727273-81.454545H279.272727c-76.8 0-139.636364 62.836364-139.636363 139.636363V709.818182c0 76.8 62.836364 139.636364 139.636363 139.636363h465.454546c76.8 0 139.636364-62.836364 139.636363-139.636363v-651.636364c0-76.8-62.836364-139.636364-139.636363-139.636363zM279.272727 756.363636c-25.6 0-46.545455-20.945455-46.545454-46.545454v-651.636364c0-25.6 20.945455-46.545455 46.545454-46.545454h465.454546c25.6 0 46.545455 20.945455 46.545454 46.545454V709.818182c0 25.6-20.945455 46.545455-46.545454 46.545454H279.272727z"  horiz-adv-x="1024" />

    
    <glyph glyph-name="yanzhengma" unicode="&#59014;" d="M837.818182 11.636364H186.181818c-51.2 0-93.090909 41.890909-93.090909 93.090909v111.709091c0 25.6 20.945455 46.545455 46.545455 46.545454s46.545455-20.945455 46.545454-46.545454V104.727273h651.636364v111.709091c0 25.6 20.945455 46.545455 46.545454 46.545454s46.545455-20.945455 46.545455-46.545454V104.727273c0-51.2-41.890909-93.090909-93.090909-93.090909z m46.545454 486.4c-25.6 0-46.545455 20.945455-46.545454 46.545454V663.272727H186.181818v-116.363636c0-25.6-20.945455-46.545455-46.545454-46.545455s-46.545455 20.945455-46.545455 46.545455v116.363636c0 51.2 41.890909 93.090909 93.090909 93.090909h651.636364c51.2 0 93.090909-41.890909 93.090909-93.090909v-118.690909c0-25.6-20.945455-46.545455-46.545455-46.545454zM628.363636 337.454545H395.636364c-25.6 0-46.545455 20.945455-46.545455 46.545455s20.945455 46.545455 46.545455 46.545455h232.727272c25.6 0 46.545455-20.945455 46.545455-46.545455s-20.945455-46.545455-46.545455-46.545455z"  horiz-adv-x="1024" />

    
    <glyph glyph-name="laorendangan" unicode="&#59015;" d="M814.545455-58.181818H209.454545c-51.2 0-93.090909 41.890909-93.090909 93.090909V686.545455c0 76.8 62.836364 139.636364 139.636364 139.636363h512c76.8 0 139.636364-62.836364 139.636364-139.636363v-651.636364c0-51.2-41.890909-93.090909-93.090909-93.090909zM256 733.090909c-25.6 0-46.545455-20.945455-46.545455-46.545454v-651.636364h605.09091V686.545455c0 25.6-20.945455 46.545455-46.545455 46.545454H256zM581.818182 337.454545H349.090909c-25.6 0-46.545455 20.945455-46.545454 46.545455s20.945455 46.545455 46.545454 46.545455h232.727273c25.6 0 46.545455-20.945455 46.545454-46.545455s-20.945455-46.545455-46.545454-46.545455zM698.181818 151.272727H349.090909c-25.6 0-46.545455 20.945455-46.545454 46.545455s20.945455 46.545455 46.545454 46.545454h349.090909c25.6 0 46.545455-20.945455 46.545455-46.545454s-20.945455-46.545455-46.545455-46.545455zM442.181818 523.636364h-93.090909c-25.6 0-46.545455 20.945455-46.545454 46.545454s20.945455 46.545455 46.545454 46.545455h93.090909c25.6 0 46.545455-20.945455 46.545455-46.545455s-20.945455-46.545455-46.545455-46.545454z"  horiz-adv-x="1024" />

    
    <glyph glyph-name="jinritixing" unicode="&#59016;" d="M784.290909 81.454545h-535.272727c-44.218182 0-74.472727 27.927273-81.454546 55.854546-6.981818 23.272727 0 46.545455 16.290909 60.509091l20.945455 20.945454V484.072727v4.654546C223.418182 649.309091 353.745455 779.636364 498.036364 779.636364c172.218182 0 311.854545-121.018182 330.472727-290.909091v-269.963637l20.945454-20.945454c16.290909-13.963636 23.272727-37.236364 16.29091-60.509091-9.309091-27.927273-37.236364-55.854545-81.454546-55.854546z m-495.709091 93.09091H744.727273c-4.654545 6.981818-6.981818 16.290909-6.981818 25.6V481.745455C721.454545 602.763636 623.709091 686.545455 498.036364 686.545455c-97.745455 0-188.509091-93.090909-202.472728-204.8v-281.6c0-9.309091-2.327273-18.618182-6.981818-25.6zM516.654545 709.818182c-25.6 0-46.545455 20.945455-46.545454 46.545454V802.909091c0 25.6 20.945455 46.545455 46.545454 46.545454s46.545455-20.945455 46.545455-46.545454v-46.545455c0-25.6-20.945455-46.545455-46.545455-46.545454zM591.127273 293.236364h-93.090909c-25.6 0-46.545455 20.945455-46.545455 46.545454v93.090909c0 25.6 20.945455 46.545455 46.545455 46.545455s46.545455-20.945455 46.545454-46.545455v-46.545454h46.545455c25.6 0 46.545455-20.945455 46.545454-46.545455s-20.945455-46.545455-46.545454-46.545454zM563.2-58.181818h-93.090909c-25.6 0-46.545455 20.945455-46.545455 46.545454s20.945455 46.545455 46.545455 46.545455h93.090909c25.6 0 46.545455-20.945455 46.545455-46.545455s-20.945455-46.545455-46.545455-46.545454z"  horiz-adv-x="1024" />

    
    <glyph glyph-name="laorendangan_p" unicode="&#59017;" d="M768 826.181818H256C179.2 826.181818 116.363636 763.345455 116.363636 686.545455v-651.636364c0-51.2 41.890909-93.090909 93.090909-93.090909h605.09091c51.2 0 93.090909 41.890909 93.090909 93.090909V686.545455c0 76.8-62.836364 139.636364-139.636364 139.636363z m-418.909091-209.454545h93.090909c25.6 0 46.545455-20.945455 46.545455-46.545455s-20.945455-46.545455-46.545455-46.545454h-93.090909c-25.6 0-46.545455 20.945455-46.545454 46.545454s20.945455 46.545455 46.545454 46.545455z m0-186.181818h232.727273c25.6 0 46.545455-20.945455 46.545454-46.545455s-20.945455-46.545455-46.545454-46.545455H349.090909c-25.6 0-46.545455 20.945455-46.545454 46.545455s20.945455 46.545455 46.545454 46.545455z m349.090909-279.272728H349.090909c-25.6 0-46.545455 20.945455-46.545454 46.545455s20.945455 46.545455 46.545454 46.545454h349.090909c25.6 0 46.545455-20.945455 46.545455-46.545454s-20.945455-46.545455-46.545455-46.545455z"  horiz-adv-x="1024" />

    
    <glyph glyph-name="guanyuwomen1" unicode="&#59018;" d="M512 384m-512 0a512 512 0 1 1 1024 0 512 512 0 1 1-1024 0ZM512 25.600000000000023c-197.12 0-358.4 161.28-358.4 358.4S314.88 742.4 512 742.4s358.4-161.28 358.4-358.4-161.28-358.4-358.4-358.4z m0 665.6C343.04 691.2 204.8 552.96 204.8 384s138.24-307.2 307.2-307.2 307.2 138.24 307.2 307.2S680.96 691.2 512 691.2zM396.8 404.48c-10.24 0-20.48 5.12-28.16 10.24-5.12 7.68-10.24 17.92-10.24 25.6 0 10.24 5.12 20.48 10.24 28.16 15.36 15.36 40.96 15.36 56.32 0 5.12-7.68 10.24-17.92 10.24-28.16 0-10.24-5.12-20.48-10.24-28.16-7.68-5.12-17.92-7.68-28.16-7.68zM665.6 396.8h-40.96c-23.04 0-43.52 17.92-43.52 43.52v40.96c0 15.36 10.24 25.6 25.6 25.6s25.6-10.24 25.6-25.6v-30.72H665.6c15.36 0 25.6-10.24 25.6-25.6s-10.24-28.16-25.6-28.16zM522.24 184.32000000000005c-40.96 0-74.24 33.28-74.24 74.24v20.48c0 15.36 10.24 25.6 25.6 25.6s25.6-10.24 25.6-25.6v-20.48c0-12.8 10.24-23.04 23.04-23.04s23.04 10.24 23.04 23.04v20.48c0 15.36 10.24 25.6 25.6 25.6s25.6-10.24 25.6-25.6v-20.48c-2.56-40.96-33.28-74.24-74.24-74.24z"  horiz-adv-x="1024" />

    
    <glyph glyph-name="mima" unicode="&#59019;" d="M814.545455 500.363636h-139.636364v162.909091c0 90.763636-72.145455 162.909091-162.909091 162.909091s-162.909091-72.145455-162.909091-162.909091v-162.909091H209.454545c-51.2 0-93.090909-41.890909-93.090909-93.090909v-372.363636c0-51.2 41.890909-93.090909 93.090909-93.090909h605.09091c51.2 0 93.090909 41.890909 93.090909 93.090909V407.272727c0 51.2-41.890909 93.090909-93.090909 93.090909z m-372.363637 162.909091c0 39.563636 30.254545 69.818182 69.818182 69.818182s69.818182-30.254545 69.818182-69.818182v-162.909091h-139.636364v162.909091z m372.363637-628.363636H209.454545V407.272727h605.09091v-372.363636zM581.818182 221.090909h-46.545455v46.545455c0 25.6-20.945455 46.545455-46.545454 46.545454s-46.545455-20.945455-46.545455-46.545454v-93.090909c0-25.6 20.945455-46.545455 46.545455-46.545455h93.090909c25.6 0 46.545455 20.945455 46.545454 46.545455s-20.945455 46.545455-46.545454 46.545454z"  horiz-adv-x="1024" />

    
    <glyph glyph-name="mendianxinxi" unicode="&#59020;" d="M512 384m-512 0a512 512 0 1 1 1024 0 512 512 0 1 1-1024 0ZM685.056 81.91999999999996h-329.728c-47.104 0-86.016 40.96-86.016 90.112v186.368c0 12.288 8.192 20.48 20.48 20.48s20.48-8.192 20.48-20.48v-186.368c0-26.624 20.48-49.152 45.056-49.152h329.728c24.576 0 45.056 22.528 45.056 49.152v186.368c0 12.288 8.192 20.48 20.48 20.48s20.48-8.192 20.48-20.48v-186.368c0-49.152-38.912-90.112-86.016-90.112zM744.448 337.91999999999996h-464.896c-34.816 0-61.44 26.624-61.44 61.44v10.24l36.864 225.28c6.144 28.672 30.72 51.2 61.44 51.2h391.168c30.72 0 55.296-22.528 61.44-51.2l36.864-225.28c6.144-32.768-16.384-65.536-51.2-71.68h-10.24z m-428.032 307.2c-10.24 0-18.432-8.192-20.48-16.384l-36.864-225.28v-4.096c0-12.288 8.192-20.48 20.48-20.48h471.04c10.24 2.048 18.432 12.288 16.384 24.576l-36.864 225.28c-2.048 10.24-10.24 16.384-20.48 16.384h-393.216z"  horiz-adv-x="1024" />

    
    <glyph glyph-name="jinritixing_p" unicode="&#59021;" d="M849.454545 197.818182l-20.945454 20.945454V484.072727v4.654546c-16.290909 146.618182-125.672727 258.327273-267.636364 283.927272V802.909091c0 25.6-20.945455 46.545455-46.545454 46.545454s-46.545455-20.945455-46.545455-46.545454v-25.6c-132.654545-16.290909-249.018182-139.636364-267.636363-288.581818v-269.963637l-16.29091-20.945454c-16.290909-13.963636-23.272727-37.236364-16.290909-60.509091 9.309091-27.927273 37.236364-55.854545 81.454546-55.854546h532.945454c44.218182 0 74.472727 27.927273 81.454546 55.854546 9.309091 23.272727 2.327273 46.545455-13.963637 60.509091z m-258.327272 95.418182h-93.090909c-25.6 0-46.545455 20.945455-46.545455 46.545454v93.090909c0 25.6 20.945455 46.545455 46.545455 46.545455s46.545455-20.945455 46.545454-46.545455v-46.545454h46.545455c25.6 0 46.545455-20.945455 46.545454-46.545455s-20.945455-46.545455-46.545454-46.545454zM563.2 34.909091h-93.090909c-25.6 0-46.545455-20.945455-46.545455-46.545455s20.945455-46.545455 46.545455-46.545454h93.090909c25.6 0 46.545455 20.945455 46.545455 46.545454s-20.945455 46.545455-46.545455 46.545455z"  horiz-adv-x="1024" />

    
    <glyph glyph-name="tizhengcaiji" unicode="&#59022;" d="M861.090909-58.181818H162.909091c-51.2 0-93.090909 41.890909-93.090909 93.090909V686.545455c0 76.8 62.836364 139.636364 139.636363 139.636363h605.09091c76.8 0 139.636364-62.836364 139.636363-139.636363v-651.636364c0-51.2-41.890909-93.090909-93.090909-93.090909zM209.454545 733.090909c-25.6 0-46.545455-20.945455-46.545454-46.545454v-651.636364h698.181818V686.545455c0 25.6-20.945455 46.545455-46.545454 46.545454H209.454545zM512 151.272727c-25.6 0-46.545455 20.945455-46.545455 46.545455v123.345454c0 25.6 20.945455 46.545455 46.545455 46.545455s46.545455-20.945455 46.545455-46.545455V197.818182c0-25.6-20.945455-46.545455-46.545455-46.545455zM698.181818 151.272727c-25.6 0-46.545455 20.945455-46.545454 46.545455v186.181818c0 25.6 20.945455 46.545455 46.545454 46.545455s46.545455-20.945455 46.545455-46.545455v-186.181818c0-25.6-20.945455-46.545455-46.545455-46.545455zM325.818182 151.272727c-25.6 0-46.545455 20.945455-46.545455 46.545455v62.836363c0 25.6 20.945455 46.545455 46.545455 46.545455s46.545455-20.945455 46.545454-46.545455V197.818182c0-25.6-20.945455-46.545455-46.545454-46.545455zM372.363636 407.272727c-11.636364 0-23.272727 4.654545-32.581818 13.963637l-46.545454 46.545454c-18.618182 18.618182-18.618182 46.545455 0 65.163637 18.618182 18.618182 46.545455 18.618182 65.163636 0l13.963636-13.963637 83.781819 83.781818c18.618182 18.618182 46.545455 18.618182 65.163636 0 18.618182-18.618182 18.618182-46.545455 0-65.163636l-116.363636-116.363636c-9.309091-9.309091-20.945455-13.963636-32.581819-13.963637z"  horiz-adv-x="1024" />

    
    <glyph glyph-name="tizhengcaiji_p" unicode="&#59023;" d="M814.545455 826.181818H209.454545C132.654545 826.181818 69.818182 763.345455 69.818182 686.545455v-651.636364c0-51.2 41.890909-93.090909 93.090909-93.090909h698.181818c51.2 0 93.090909 41.890909 93.090909 93.090909V686.545455c0 76.8-62.836364 139.636364-139.636363 139.636363zM372.363636 197.818182c0-25.6-20.945455-46.545455-46.545454-46.545455s-46.545455 20.945455-46.545455 46.545455v62.836363c0 25.6 20.945455 46.545455 46.545455 46.545455s46.545455-20.945455 46.545454-46.545455V197.818182z m0 209.454545c-11.636364 0-23.272727 4.654545-32.581818 13.963637l-46.545454 46.545454c-18.618182 18.618182-18.618182 46.545455 0 65.163637 18.618182 18.618182 46.545455 18.618182 65.163636 0l13.963636-13.963637 83.781819 83.781818c18.618182 18.618182 46.545455 18.618182 65.163636 0 18.618182-18.618182 18.618182-46.545455 0-65.163636l-116.363636-116.363636c-9.309091-9.309091-20.945455-13.963636-32.581819-13.963637z m186.181819-209.454545c0-25.6-20.945455-46.545455-46.545455-46.545455s-46.545455 20.945455-46.545455 46.545455v123.345454c0 25.6 20.945455 46.545455 46.545455 46.545455s46.545455-20.945455 46.545455-46.545455V197.818182z m186.181818 0c0-25.6-20.945455-46.545455-46.545455-46.545455s-46.545455 20.945455-46.545454 46.545455v186.181818c0 25.6 20.945455 46.545455 46.545454 46.545455s46.545455-20.945455 46.545455-46.545455v-186.181818z"  horiz-adv-x="1024" />

    
    <glyph glyph-name="wodekaoqin" unicode="&#59024;" d="M512 384m-512 0a512 512 0 1 1 1024 0 512 512 0 1 1-1024 0ZM768 435.2H256c-15.36 0-25.6 10.24-25.6 25.6s10.24 25.6 25.6 25.6h512c15.36 0 25.6-10.24 25.6-25.6s-10.24-25.6-25.6-25.6zM742.4 76.79999999999995H281.6c-43.52 0-76.8 33.28-76.8 76.8V563.2c0 43.52 33.28 76.8 76.8 76.8h460.8c43.52 0 76.8-33.28 76.8-76.8v-409.6c0-43.52-33.28-76.8-76.8-76.8zM281.6 588.8c-15.36 0-25.6-10.24-25.6-25.6v-409.6c0-15.36 10.24-25.6 25.6-25.6h460.8c15.36 0 25.6 10.24 25.6 25.6V563.2c0 15.36-10.24 25.6-25.6 25.6H281.6zM494.08 230.39999999999998c-5.12 0-12.8 2.56-17.92 7.68l-33.28 30.72c-10.24 10.24-10.24 25.6-2.56 35.84 10.24 10.24 25.6 10.24 35.84 2.56l15.36-12.8 76.8 84.48c10.24 10.24 25.6 10.24 35.84 2.56 10.24-10.24 10.24-25.6 2.56-35.84l-94.72-102.4c-2.56-10.24-10.24-12.8-17.92-12.8zM384 537.6c-15.36 0-25.6 10.24-25.6 25.6V665.6c0 15.36 10.24 25.6 25.6 25.6s25.6-10.24 25.6-25.6v-102.4c0-15.36-10.24-25.6-25.6-25.6zM640 537.6c-15.36 0-25.6 10.24-25.6 25.6V665.6c0 15.36 10.24 25.6 25.6 25.6s25.6-10.24 25.6-25.6v-102.4c0-15.36-10.24-25.6-25.6-25.6z"  horiz-adv-x="1024" />

    
    <glyph glyph-name="yihuduan_wode_p" unicode="&#59025;" d="M512 663.272727m-162.909091 0a162.909091 162.909091 0 1 1 325.818182 0 162.909091 162.909091 0 1 1-325.818182 0ZM642.327273 453.818182H381.672727C260.654545 453.818182 162.909091 358.4 162.909091 239.709091V-11.636364c0-25.6 20.945455-46.545455 46.545454-46.545454h605.09091c25.6 0 46.545455 20.945455 46.545454 46.545454V239.709091c0 118.690909-97.745455 214.109091-218.763636 214.109091zM581.818182-34.909091h-139.636364c-25.6 0-46.545455 20.945455-46.545454 46.545455s20.945455 46.545455 46.545454 46.545454h139.636364c25.6 0 46.545455-20.945455 46.545454-46.545454s-20.945455-46.545455-46.545454-46.545455z"  horiz-adv-x="1024" />

    
    <glyph glyph-name="wodepaiban" unicode="&#59026;" d="M512 384m-512 0a512 512 0 1 1 1024 0 512 512 0 1 1-1024 0ZM793.6 204.79999999999995h-25.6c-15.36 0-25.6 10.24-25.6 25.6v25.6c0 15.36 10.24 25.6 25.6 25.6s25.6-10.24 25.6-25.6c15.36 0 25.6-10.24 25.6-25.6s-10.24-25.6-25.6-25.6zM591.36 128H281.6c-15.36 0-25.6 10.24-25.6 25.6V435.2h512c17.92 0 35.84-2.56 51.2-7.68V563.2c0 43.52-33.28 76.8-76.8 76.8h-76.8V665.6c0 15.36-10.24 25.6-25.6 25.6s-25.6-10.24-25.6-25.6v-25.6h-204.8V665.6c0 15.36-10.24 25.6-25.6 25.6s-25.6-10.24-25.6-25.6v-25.6h-76.8c-43.52 0-76.8-33.28-76.8-76.8v-409.6c0-43.52 33.28-76.8 76.8-76.8h350.72c-15.36 15.36-30.72 30.72-40.96 51.2zM256 563.2c0 15.36 10.24 25.6 25.6 25.6h76.8v-25.6c0-15.36 10.24-25.6 25.6-25.6s25.6 10.24 25.6 25.6v25.6h204.8v-25.6c0-15.36 10.24-25.6 25.6-25.6s25.6 10.24 25.6 25.6v25.6h76.8c15.36 0 25.6-10.24 25.6-25.6v-76.8H256v76.8zM768 76.79999999999995c-84.48 0-153.6 69.12-153.6 153.6s69.12 153.6 153.6 153.6 153.6-69.12 153.6-153.6-69.12-153.6-153.6-153.6z m0 256c-56.32 0-102.4-46.08-102.4-102.4s46.08-102.4 102.4-102.4 102.4 46.08 102.4 102.4-46.08 102.4-102.4 102.4z"  horiz-adv-x="1024" />

    
    <glyph glyph-name="zhanghao" unicode="&#59027;" d="M512 500.363636c-90.763636 0-162.909091 72.145455-162.909091 162.909091s72.145455 162.909091 162.909091 162.909091 162.909091-72.145455 162.909091-162.909091-72.145455-162.909091-162.909091-162.909091z m0 232.727273c-39.563636 0-69.818182-30.254545-69.818182-69.818182s30.254545-69.818182 69.818182-69.818182 69.818182 30.254545 69.818182 69.818182-30.254545 69.818182-69.818182 69.818182zM814.545455-58.181818c-25.6 0-46.545455 20.945455-46.545455 46.545454V239.709091c0 67.490909-55.854545 121.018182-125.672727 121.018182H381.672727c-69.818182 0-125.672727-53.527273-125.672727-121.018182V-11.636364c0-25.6-20.945455-46.545455-46.545455-46.545454s-46.545455 20.945455-46.545454 46.545454V239.709091c0 118.690909 97.745455 214.109091 218.763636 214.109091h258.327273c121.018182 0 218.763636-95.418182 218.763636-214.109091V-11.636364c2.327273-25.6-18.618182-46.545455-44.218181-46.545454zM581.818182-58.181818h-139.636364c-25.6 0-46.545455 20.945455-46.545454 46.545454s20.945455 46.545455 46.545454 46.545455h139.636364c25.6 0 46.545455-20.945455 46.545454-46.545455s-20.945455-46.545455-46.545454-46.545454z"  horiz-adv-x="1024" />

    
    <glyph glyph-name="yihuduan_wode" unicode="&#59028;" d="M512 500.363636c-90.763636 0-162.909091 72.145455-162.909091 162.909091s72.145455 162.909091 162.909091 162.909091 162.909091-72.145455 162.909091-162.909091-72.145455-162.909091-162.909091-162.909091z m0 232.727273c-39.563636 0-69.818182-30.254545-69.818182-69.818182s30.254545-69.818182 69.818182-69.818182 69.818182 30.254545 69.818182 69.818182-30.254545 69.818182-69.818182 69.818182zM814.545455-58.181818c-25.6 0-46.545455 20.945455-46.545455 46.545454V239.709091c0 67.490909-55.854545 121.018182-125.672727 121.018182H381.672727c-69.818182 0-125.672727-53.527273-125.672727-121.018182V-11.636364c0-25.6-20.945455-46.545455-46.545455-46.545454s-46.545455 20.945455-46.545454 46.545454V239.709091c0 118.690909 97.745455 214.109091 218.763636 214.109091h258.327273c121.018182 0 218.763636-95.418182 218.763636-214.109091V-11.636364c2.327273-25.6-18.618182-46.545455-44.218181-46.545454zM581.818182-58.181818h-139.636364c-25.6 0-46.545455 20.945455-46.545454 46.545454s20.945455 46.545455 46.545454 46.545455h139.636364c25.6 0 46.545455-20.945455 46.545454-46.545455s-20.945455-46.545455-46.545454-46.545454z"  horiz-adv-x="1024" />

    
    <glyph glyph-name="xiaoxitongzhi" unicode="&#59029;" d="M512 384m-512 0a512 512 0 1 1 1024 0 512 512 0 1 1-1024 0ZM251.904 107.51999999999998h-2.048c-10.24 0-20.48 6.144-28.672 14.336-6.144 8.192-10.24 16.384-10.24 26.624V625.664c0 34.816 26.624 61.44 61.44 61.44h481.28c34.816 0 61.44-26.624 61.44-61.44V261.12c0-34.816-26.624-61.44-61.44-61.44H370.688l-92.16-81.92c-8.192-8.192-18.432-10.24-26.624-10.24z m18.432 538.624c-12.288 0-20.48-8.192-20.48-20.48v-477.184l104.448 90.112h397.312c12.288 0 20.48 8.192 20.48 20.48V625.664c0 12.288-8.192 20.48-20.48 20.48H270.336zM641.024 420.864H382.976c-12.288 0-22.528 10.24-22.528 22.528 0 12.288 10.24 22.528 22.528 22.528h258.048c12.288 0 22.528-10.24 22.528-22.528 0-12.288-10.24-22.528-22.528-22.528z"  horiz-adv-x="1024" />

    
    <glyph glyph-name="bianji" unicode="&#59030;" d="M371.712 255.012571c-10.971429 0-18.285714 3.657143-25.6 10.971429-14.628571 14.628571-14.628571 36.571429 0 51.2l416.914286 391.314286c14.628571 14.628571 36.571429 14.628571 51.2 0 14.628571-14.628571 14.628571-36.571429 0-51.2l-416.914286-391.314286c-7.314286-7.314286-14.628571-10.971429-25.6-10.971429zM313.197714 53.869714h-80.457143c-21.942857 0-36.571429 14.628571-36.571428 36.571429s14.628571 36.571429 36.571428 36.571428h80.457143c21.942857 0 36.571429-14.628571 36.571429-36.571428 0-18.285714-14.628571-36.571429-36.571429-36.571429zM803.254857 53.869714h-336.457143c-21.942857 0-36.571429 14.628571-36.571428 36.571429s14.628571 36.571429 36.571428 36.571428h336.457143c21.942857 0 36.571429-14.628571 36.571429-36.571428 0-18.285714-18.285714-36.571429-36.571429-36.571429z"  horiz-adv-x="1024" />

    
    <glyph glyph-name="arrow-xiangxia" unicode="&#59031;" d="M234.057143 453.485714l230.4-230.4c25.6-25.6 65.828571-25.6 91.428571 0s25.6 65.828571 0 91.428572l-230.4 230.4c-25.6 25.6-65.828571 25.6-91.428571 0s-25.6-65.828571 0-91.428572zM789.942857 453.485714l-230.4-230.4c-25.6-25.6-65.828571-25.6-91.428571 0s-25.6 65.828571 0 91.428572L698.514286 544.914286c25.6 21.942857 65.828571 21.942857 91.428571 0 25.6-25.6 25.6-65.828571 0-91.428572z"  horiz-adv-x="1024" />

    
    <glyph glyph-name="daohang" unicode="&#59033;" d="M808.96 585.386667l-129.706667 170.666666c-17.066667 23.893333-47.786667 27.306667-71.68 10.24-23.893333-17.066667-27.306667-47.786667-10.24-71.68l68.266667-88.746666h-273.066667C290.133333 605.866667 204.8 520.533333 204.8 418.133333v-375.466666c0-27.306667 23.893333-51.2 51.2-51.2S307.2 15.36 307.2 42.666667V418.133333c0 47.786667 37.546667 85.333333 85.333333 85.333334h273.066667l-68.266667-88.746667c-17.066667-23.893333-13.653333-54.613333 10.24-71.68 10.24-6.826667 20.48-10.24 30.72-10.24 17.066667 0 30.72 6.826667 40.96 20.48l129.706667 170.666667c13.653333 17.066667 13.653333 44.373333 0 61.44z"  horiz-adv-x="1024" />

    
    <glyph glyph-name="banben" unicode="&#59034;" d="M217.35258 39.375125H2088.289497c23.439984 0 42.618153 19.178169 42.618153 42.618153V810.763694c0 46.879968-38.356338 85.236306-85.236306 85.236306H85.236306C38.356338 896 0 857.643662 0 810.763694v-916.29029c0-4.261815 2.130908-10.654538 4.261815-14.916353 8.523631-8.523631 21.309077-10.654538 29.832707-2.130908l183.258058 161.948982z"  horiz-adv-x="2133" />

    
    <glyph glyph-name="pingjia" unicode="&#59035;" d="M554.666667 780.8l93.866666-192c8.533333-17.066667 21.333333-25.6 38.4-29.866667l213.333334-29.866666c42.666667-4.266667 59.733333-59.733333 29.866666-89.6l-153.6-149.333334c-12.8-12.8-17.066667-29.866667-17.066666-46.933333l38.4-213.333333c8.533333-42.666667-38.4-76.8-76.8-55.466667l-192 98.133333c-17.066667 8.533333-34.133333 8.533333-51.2 0l-192-98.133333c-38.4-21.333333-85.333333 12.8-76.8 55.466667l38.4 213.333333c4.266667 17.066667-4.266667 34.133333-17.066667 46.933333l-153.6 149.333334c-29.866667 29.866667-12.8 85.333333 29.866667 89.6l213.333333 29.866666c17.066667 4.266667 34.133333 12.8 38.4 29.866667l93.866667 192c25.6 38.4 81.066667 38.4 102.4 0"  horiz-adv-x="1024" />

    
    <glyph glyph-name="gouxuan" unicode="&#59036;" d="M377.018182 81.454545c-11.636364 0-23.272727 4.654545-32.581818 13.963637L83.781818 344.436364c-18.618182 18.618182-18.618182 46.545455-2.327273 65.163636 18.618182 18.618182 46.545455 18.618182 65.163637 2.327273l228.072727-218.763637L875.054545 674.909091c18.618182 18.618182 48.872727 16.290909 65.163637-2.327273 18.618182-18.618182 16.290909-48.872727-2.327273-65.163636l-530.618182-512c-6.981818-9.309091-18.618182-13.963636-30.254545-13.963637z"  horiz-adv-x="1024" />

    
    <glyph glyph-name="jintian" unicode="&#59037;" d="M814.545455-46.545455H209.454545c-76.8 0-139.636364 62.836364-139.636363 139.636364v512c0 76.8 62.836364 139.636364 139.636363 139.636364h605.09091c76.8 0 139.636364-62.836364 139.636363-139.636364v-512c0-76.8-62.836364-139.636364-139.636363-139.636364z m-605.09091 698.181819c-25.6 0-46.545455-20.945455-46.545454-46.545455v-512c0-25.6 20.945455-46.545455 46.545454-46.545454h605.09091c25.6 0 46.545455 20.945455 46.545454 46.545454v512c0 25.6-20.945455 46.545455-46.545454 46.545455H209.454545zM324.654545 581.818182c-25.6 0-46.545455 20.945455-46.545454 46.545454v139.636364c0 25.6 20.945455 46.545455 46.545454 46.545455s46.545455-20.945455 46.545455-46.545455v-139.636364c0-25.6-18.618182-46.545455-46.545455-46.545454zM697.018182 581.818182c-25.6 0-46.545455 20.945455-46.545455 46.545454v139.636364c0 25.6 20.945455 46.545455 46.545455 46.545455s46.545455-20.945455 46.545454-46.545455v-139.636364c0-25.6-18.618182-46.545455-46.545454-46.545454zM525.963636 93.090909c-6.981818 0-13.963636 2.327273-20.945454 4.654546-23.272727 11.636364-32.581818 39.563636-20.945455 62.836363l23.272728 48.872727H442.181818c-25.6 0-46.545455 20.945455-46.545454 46.545455s20.945455 46.545455 46.545454 46.545455h139.636364c16.290909 0 30.254545-9.309091 39.563636-20.945455 9.309091-13.963636 9.309091-30.254545 2.327273-44.218182l-55.854546-116.363636c-6.981818-18.618182-25.6-27.927273-41.890909-27.927273zM581.818182 442.181818c-11.636364 0-23.272727 4.654545-32.581818 13.963637L512 493.381818l-37.236364-37.236363c-18.618182-18.618182-46.545455-18.618182-65.163636 0-18.618182 18.618182-18.618182 46.545455 0 65.163636l69.818182 69.818182c18.618182 18.618182 46.545455 18.618182 65.163636 0l69.818182-69.818182c18.618182-18.618182 18.618182-46.545455 0-65.163636-9.309091-9.309091-20.945455-13.963636-32.581818-13.963637zM512 372.363636m-46.545455 0a46.545455 46.545455 0 1 1 93.09091 0 46.545455 46.545455 0 1 1-93.09091 0Z"  horiz-adv-x="1024" />

    
    <glyph glyph-name="qinshuduanqidongtubiao" unicode="&#59039;" d="M790.186667-128H233.813333C104.675556-128 0-23.324444 0 105.813333V662.186667C0 791.324444 104.675556 896 233.813333 896h556.373334C919.324444 896 1024 791.324444 1024 662.186667v-556.373334c0-129.137778-104.675556-233.813333-233.813333-233.813333M631.933156 146.7392c92.728889 47.786667 198.542222 121.742222 271.928888 214.471111 54.044444 68.266667 62.577778 166.115556-6.257777 219.591111-129.706667 100.693333-302.08-59.164444-302.08-59.164444 5.688889 5.12-78.506667 79.075556-84.195556 83.057778-54.613333 40.391111-135.964444 69.973333-199.111111 29.582222-52.906667-34.133333-68.835556-110.364444-54.044444-167.253334 27.306667-106.382222 130.844444-221.866667 206.506666-295.253333 44.373333-43.804444 112.071111-53.475556 167.253334-25.031111M255.8976 221.832533c46.648889 24.462222 98.986667 61.44 135.964444 108.657778 26.737778 34.133333 31.288889 84.195556-2.844444 110.933333-64.853333 50.631111-150.755556-30.151111-150.755556-30.151111 2.844444 2.844444-39.253333 39.822222-42.097777 42.097778-27.306667 20.48-67.697778 35.271111-99.555556 14.791111-26.168889-17.066667-34.702222-55.751111-27.306667-84.764444 13.653333-54.044444 64.853333-112.071111 102.968889-149.617778 22.186667-21.617778 56.32-26.737778 83.626667-11.946667"  horiz-adv-x="1024" />

    
    <glyph glyph-name="pingjiahuise" unicode="&#59040;" d="M554.666667 780.8l93.866666-192c8.533333-17.066667 21.333333-25.6 38.4-29.866667l213.333334-29.866666c42.666667-4.266667 59.733333-59.733333 29.866666-89.6l-153.6-149.333334c-12.8-12.8-17.066667-29.866667-17.066666-46.933333l38.4-213.333333c8.533333-42.666667-38.4-76.8-76.8-55.466667l-192 98.133333c-17.066667 8.533333-34.133333 8.533333-51.2 0l-192-98.133333c-38.4-21.333333-85.333333 12.8-76.8 55.466667l38.4 213.333333c4.266667 17.066667-4.266667 34.133333-17.066667 46.933333l-153.6 149.333334c-29.866667 29.866667-12.8 85.333333 29.866667 89.6l213.333333 29.866666c17.066667 4.266667 34.133333 12.8 38.4 29.866667l93.866667 192c25.6 38.4 81.066667 38.4 102.4 0"  horiz-adv-x="1024" />

    
    <glyph glyph-name="saoyisao" unicode="&#59041;" d="M828.509091 823.854545c-4.654545 2.327273-9.309091 2.327273-13.963636 2.327273H221.090909C137.309091 826.181818 69.818182 758.690909 69.818182 674.909091V570.181818c0-25.6 20.945455-46.545455 46.545454-46.545454s46.545455 20.945455 46.545455 46.545454V674.909091C162.909091 707.490909 188.509091 733.090909 221.090909 733.090909h581.818182C835.490909 733.090909 861.090909 707.490909 861.090909 674.909091V570.181818c0-25.6 20.945455-46.545455 46.545455-46.545454s46.545455 20.945455 46.545454 46.545454V674.909091c0 74.472727-55.854545 137.309091-125.672727 148.945454zM907.636364 244.363636c-25.6 0-46.545455-20.945455-46.545455-46.545454v-104.727273c0-30.254545-34.909091-58.181818-79.127273-58.181818H221.090909C188.509091 34.909091 162.909091 60.509091 162.909091 93.090909V197.818182c0 25.6-20.945455 46.545455-46.545455 46.545454s-46.545455-20.945455-46.545454-46.545454v-104.727273C69.818182 9.309091 137.309091-58.181818 221.090909-58.181818h560.872727c95.418182 0 172.218182 67.490909 172.218182 151.272727V197.818182c0 25.6-20.945455 46.545455-46.545454 46.545454zM698.181818 337.454545c25.6 0 46.545455 20.945455 46.545455 46.545455s-20.945455 46.545455-46.545455 46.545455H325.818182c-25.6 0-46.545455-20.945455-46.545455-46.545455s20.945455-46.545455 46.545455-46.545455h372.363636z"  horiz-adv-x="1024" />

    
    <glyph glyph-name="weixinzhifu" unicode="&#59043;" d="M373.76 268.8c-15.36-7.68-35.84-2.56-43.52 12.8l-2.56 5.12-92.16 202.24c0 2.56-2.56 5.12-2.56 7.68 0 10.24 7.68 17.92 17.92 17.92 2.56 0 7.68 0 10.24-2.56l107.52-76.8c12.8-7.68 30.72-10.24 43.52-5.12l512 227.84c-92.16 107.52-243.2 179.2-412.16 179.2C232.96 832 7.68 645.12 7.68 412.16c0-125.44 69.12-240.64 174.08-317.44 7.68-5.12 15.36-17.92 15.36-28.16 0-2.56 0-7.68-2.56-10.24l-23.04-84.48c0-2.56-2.56-7.68-2.56-12.8 0-10.24 7.68-17.92 17.92-17.92 2.56 0 7.68 0 10.24 2.56l110.08 64c7.68 5.12 17.92 7.68 25.6 7.68 5.12 0 10.24 0 15.36-2.56 53.76-15.36 110.08-23.04 163.84-23.04 279.04 0 506.88 189.44 506.88 422.4 0 69.12-20.48 138.24-58.88 194.56L378.88 271.36l-5.12-2.56z"  horiz-adv-x="1024" />

    
    <glyph glyph-name="weizhi" unicode="&#59044;" d="M512 896C286.72 896 102.4 719.36 102.4 501.76c0-81.92 25.6-158.72 71.68-225.28 2.56-5.12 5.12-7.68 7.68-10.24l299.52-378.88c7.68-7.68 17.92-12.8 30.72-12.8s23.04 5.12 30.72 15.36l296.96 378.88c2.56 2.56 5.12 7.68 7.68 10.24 48.64 66.56 74.24 143.36 74.24 225.28C921.6 719.36 737.28 896 512 896M512 514.56m-128 0a128 128 0 1 1 256 0 128 128 0 1 1-256 0Z"  horiz-adv-x="1024" />

    
    <glyph glyph-name="weizhibaisebeijing" unicode="&#59045;" d="M1971.2-34.909091H3646.060606c42.666667 0 77.575758 34.909091 77.575758 77.575758V818.424242c0 42.666667-34.909091 77.575758-77.575758 77.575758H77.575758C34.909091 896 0 861.090909 0 818.424242v-775.757575c0-42.666667 34.909091-77.575758 77.575758-77.575758h1674.860606l81.454545-81.454545c15.515152-15.515152 40.339394-15.515152 55.854546 0l81.454545 81.454545z"  horiz-adv-x="3723" />

    
    <glyph glyph-name="zhifubao" unicode="&#59046;" d="M970.24 189.44c25.6 61.44 40.96 128 40.96 194.56C1011.2 660.48 788.48 883.2 512 883.2S12.8 660.48 12.8 384 235.52-115.2 512-115.2c166.4 0 312.32 81.92 404.48 207.36-87.04 43.52-227.84 112.64-314.88 156.16-40.96-48.64-102.4-94.72-171.52-115.2-43.52-12.8-81.92-17.92-122.88-10.24-40.96 7.68-71.68 28.16-87.04 46.08-7.68 10.24-17.92 23.04-25.6 35.84v-2.56s-5.12 7.68-7.68 17.92c-2.56 5.12-2.56 12.8-2.56 17.92v12.8c0 7.68 0 15.36 2.56 23.04 5.12 20.48 12.8 43.52 33.28 64 48.64 46.08 112.64 48.64 145.92 48.64 48.64 0 135.68-23.04 207.36-46.08 20.48 43.52 33.28 87.04 40.96 117.76H309.76v33.28h153.6v64h-186.88V588.8h186.88V652.8c0 7.68 2.56 15.36 15.36 15.36h71.68v-81.92h202.24v-33.28h-202.24v-64h161.28s-15.36-89.6-66.56-179.2c115.2-38.4 273.92-99.84 325.12-120.32M238.08 320c-12.8-10.24-25.6-23.04-28.16-40.96-5.12-23.04 0-53.76 23.04-76.8 28.16-28.16 71.68-35.84 89.6-38.4 51.2-2.56 102.4 20.48 143.36 48.64 15.36 10.24 43.52 33.28 69.12 69.12-58.88 30.72-130.56 64-207.36 58.88-40.96 0-69.12-7.68-89.6-20.48"  horiz-adv-x="1024" />

    
    <glyph glyph-name="yuqi" unicode="&#59047;" d="M512 384m-512 0a512 512 0 1 1 1024 0 512 512 0 1 1-1024 0ZM716.8 445.44V563.2c0 35.84-29.44 64-65.28 64H372.48c-35.84 0-65.28-28.16-65.28-64v-358.4c0-35.84 29.44-64 65.28-64h341.76l2.56 304.64zM614.4 473.6H409.6c-14.08 0-25.6 11.52-25.6 25.6s11.52 25.6 25.6 25.6h204.8c14.08 0 25.6-11.52 25.6-25.6s-11.52-25.6-25.6-25.6zM563.2 371.20000000000005H409.6c-14.08 0-25.6 11.52-25.6 25.6s11.52 25.6 25.6 25.6h153.6c14.08 0 25.6-11.52 25.6-25.6s-11.52-25.6-25.6-25.6zM486.4 268.79999999999995h-76.8c-14.08 0-25.6 11.52-25.6 25.6s11.52 25.6 25.6 25.6h76.8c14.08 0 25.6-11.52 25.6-25.6s-11.52-25.6-25.6-25.6zM819.2 256c0-64-51.2-115.2-115.2-115.2s-115.2 51.2-115.2 115.2 51.2 115.2 115.2 115.2 115.2-51.2 115.2-115.2M744.96 209.91999999999996h-51.2c-14.08 0-25.6 11.52-25.6 25.6v51.2c0 14.08 11.52 25.6 25.6 25.6s25.6-11.52 25.6-25.6v-25.6h25.6c14.08 0 25.6-11.52 25.6-25.6s-11.52-25.6-25.6-25.6z"  horiz-adv-x="1024" />

    
    <glyph glyph-name="qingchu1" unicode="&#59048;" d="M0 384c0-282.624 229.376-512 512-512s512 229.376 512 512S794.624 896 512 896 0 666.624 0 384zM563.2 384l153.6 153.6c14.848 14.848 14.848 36.352 0 51.2-14.848 14.848-36.352 14.848-51.2 0l-153.6-153.6-153.6 153.6c-14.848 14.848-36.352 14.848-51.2 0-14.848-14.848-14.848-36.352 0-51.2l153.6-153.6-153.6-153.6c-14.848-14.848-14.848-36.352 0-51.2 14.848-14.848 36.352-14.848 51.2 0l153.6 153.6 153.6-153.6c14.848-14.848 36.352-14.848 51.2 0 14.848 14.848 14.848 36.352 0 51.2l-153.6 153.6z"  horiz-adv-x="1024" />

    
    <glyph glyph-name="gouxuan1" unicode="&#59032;" d="M377.018182 81.454545c-11.636364 0-23.272727 4.654545-32.581818 13.963637L83.781818 344.436364c-18.618182 18.618182-18.618182 46.545455-2.327273 65.163636 18.618182 18.618182 46.545455 18.618182 65.163637 2.327273l228.072727-218.763637L875.054545 674.909091c18.618182 18.618182 48.872727 16.290909 65.163637-2.327273 18.618182-18.618182 16.290909-48.872727-2.327273-65.163636l-530.618182-512c-6.981818-9.309091-18.618182-13.963636-30.254545-13.963637z"  horiz-adv-x="1024" />

    
    <glyph glyph-name="saoyisao1" unicode="&#59038;" d="M828.509091 823.854545c-4.654545 2.327273-9.309091 2.327273-13.963636 2.327273H221.090909C137.309091 826.181818 69.818182 758.690909 69.818182 674.909091V570.181818c0-25.6 20.945455-46.545455 46.545454-46.545454s46.545455 20.945455 46.545455 46.545454V674.909091C162.909091 707.490909 188.509091 733.090909 221.090909 733.090909h581.818182C835.490909 733.090909 861.090909 707.490909 861.090909 674.909091V570.181818c0-25.6 20.945455-46.545455 46.545455-46.545454s46.545455 20.945455 46.545454 46.545454V674.909091c0 74.472727-55.854545 137.309091-125.672727 148.945454zM907.636364 244.363636c-25.6 0-46.545455-20.945455-46.545455-46.545454v-104.727273c0-30.254545-34.909091-58.181818-79.127273-58.181818H221.090909C188.509091 34.909091 162.909091 60.509091 162.909091 93.090909V197.818182c0 25.6-20.945455 46.545455-46.545455 46.545454s-46.545455-20.945455-46.545454-46.545454v-104.727273C69.818182 9.309091 137.309091-58.181818 221.090909-58.181818h560.872727c95.418182 0 172.218182 67.490909 172.218182 151.272727V197.818182c0 25.6-20.945455 46.545455-46.545454 46.545454zM698.181818 337.454545c25.6 0 46.545455 20.945455 46.545455 46.545455s-20.945455 46.545455-46.545455 46.545455H325.818182c-25.6 0-46.545455-20.945455-46.545455-46.545455s20.945455-46.545455 46.545455-46.545455h372.363636z"  horiz-adv-x="1024" />

    
    <glyph glyph-name="mima1" unicode="&#59042;" d="M814.545455 500.363636h-139.636364v162.909091c0 90.763636-72.145455 162.909091-162.909091 162.909091s-162.909091-72.145455-162.909091-162.909091v-162.909091H209.454545c-51.2 0-93.090909-41.890909-93.090909-93.090909v-372.363636c0-51.2 41.890909-93.090909 93.090909-93.090909h605.09091c51.2 0 93.090909 41.890909 93.090909 93.090909V407.272727c0 51.2-41.890909 93.090909-93.090909 93.090909z m-372.363637 162.909091c0 39.563636 30.254545 69.818182 69.818182 69.818182s69.818182-30.254545 69.818182-69.818182v-162.909091h-139.636364v162.909091z m372.363637-628.363636H209.454545V407.272727h605.09091v-372.363636zM581.818182 221.090909h-46.545455v46.545455c0 25.6-20.945455 46.545455-46.545454 46.545454s-46.545455-20.945455-46.545455-46.545454v-93.090909c0-25.6 20.945455-46.545455 46.545455-46.545455h93.090909c25.6 0 46.545455 20.945455 46.545454 46.545455s-20.945455 46.545455-46.545454 46.545454z"  horiz-adv-x="1024" />

    
    <glyph glyph-name="daohang1" unicode="&#59049;" d="M808.96 585.386667l-129.706667 170.666666c-17.066667 23.893333-47.786667 27.306667-71.68 10.24-23.893333-17.066667-27.306667-47.786667-10.24-71.68l68.266667-88.746666h-273.066667C290.133333 605.866667 204.8 520.533333 204.8 418.133333v-375.466666c0-27.306667 23.893333-51.2 51.2-51.2S307.2 15.36 307.2 42.666667V418.133333c0 47.786667 37.546667 85.333333 85.333333 85.333334h273.066667l-68.266667-88.746667c-17.066667-23.893333-13.653333-54.613333 10.24-71.68 10.24-6.826667 20.48-10.24 30.72-10.24 17.066667 0 30.72 6.826667 40.96 20.48l129.706667 170.666667c13.653333 17.066667 13.653333 44.373333 0 61.44z"  horiz-adv-x="1024" />

    
    <glyph glyph-name="pingjiahuise1" unicode="&#59050;" d="M554.666667 780.8l93.866666-192c8.533333-17.066667 21.333333-25.6 38.4-29.866667l213.333334-29.866666c42.666667-4.266667 59.733333-59.733333 29.866666-89.6l-153.6-149.333334c-12.8-12.8-17.066667-29.866667-17.066666-46.933333l38.4-213.333333c8.533333-42.666667-38.4-76.8-76.8-55.466667l-192 98.133333c-17.066667 8.533333-34.133333 8.533333-51.2 0l-192-98.133333c-38.4-21.333333-85.333333 12.8-76.8 55.466667l38.4 213.333333c4.266667 17.066667-4.266667 34.133333-17.066667 46.933333l-153.6 149.333334c-29.866667 29.866667-12.8 85.333333 29.866667 89.6l213.333333 29.866666c17.066667 4.266667 34.133333 12.8 38.4 29.866667l93.866667 192c25.6 38.4 81.066667 38.4 102.4 0"  horiz-adv-x="1024" />

    
    <glyph glyph-name="shoujihao1" unicode="&#59051;" d="M814.545455 197.818182H209.454545c-25.6 0-46.545455 20.945455-46.545454 46.545454s20.945455 46.545455 46.545454 46.545455h605.09091c25.6 0 46.545455-20.945455 46.545454-46.545455s-20.945455-46.545455-46.545454-46.545454zM558.545455 58.181818h-93.09091c-25.6 0-46.545455 20.945455-46.545454 46.545455s20.945455 46.545455 46.545454 46.545454h93.09091c25.6 0 46.545455-20.945455 46.545454-46.545454s-20.945455-46.545455-46.545454-46.545455zM744.727273-81.454545H279.272727c-76.8 0-139.636364 62.836364-139.636363 139.636363V709.818182c0 76.8 62.836364 139.636364 139.636363 139.636363h465.454546c76.8 0 139.636364-62.836364 139.636363-139.636363v-651.636364c0-76.8-62.836364-139.636364-139.636363-139.636363zM279.272727 756.363636c-25.6 0-46.545455-20.945455-46.545454-46.545454v-651.636364c0-25.6 20.945455-46.545455 46.545454-46.545454h465.454546c25.6 0 46.545455 20.945455 46.545454 46.545454V709.818182c0 25.6-20.945455 46.545455-46.545454 46.545454H279.272727z"  horiz-adv-x="1024" />

    
    <glyph glyph-name="jintian1" unicode="&#59052;" d="M814.545455-46.545455H209.454545c-76.8 0-139.636364 62.836364-139.636363 139.636364v512c0 76.8 62.836364 139.636364 139.636363 139.636364h605.09091c76.8 0 139.636364-62.836364 139.636363-139.636364v-512c0-76.8-62.836364-139.636364-139.636363-139.636364z m-605.09091 698.181819c-25.6 0-46.545455-20.945455-46.545454-46.545455v-512c0-25.6 20.945455-46.545455 46.545454-46.545454h605.09091c25.6 0 46.545455 20.945455 46.545454 46.545454v512c0 25.6-20.945455 46.545455-46.545454 46.545455H209.454545zM324.654545 581.818182c-25.6 0-46.545455 20.945455-46.545454 46.545454v139.636364c0 25.6 20.945455 46.545455 46.545454 46.545455s46.545455-20.945455 46.545455-46.545455v-139.636364c0-25.6-18.618182-46.545455-46.545455-46.545454zM697.018182 581.818182c-25.6 0-46.545455 20.945455-46.545455 46.545454v139.636364c0 25.6 20.945455 46.545455 46.545455 46.545455s46.545455-20.945455 46.545454-46.545455v-139.636364c0-25.6-18.618182-46.545455-46.545454-46.545454zM525.963636 93.090909c-6.981818 0-13.963636 2.327273-20.945454 4.654546-23.272727 11.636364-32.581818 39.563636-20.945455 62.836363l23.272728 48.872727H442.181818c-25.6 0-46.545455 20.945455-46.545454 46.545455s20.945455 46.545455 46.545454 46.545455h139.636364c16.290909 0 30.254545-9.309091 39.563636-20.945455 9.309091-13.963636 9.309091-30.254545 2.327273-44.218182l-55.854546-116.363636c-6.981818-18.618182-25.6-27.927273-41.890909-27.927273zM581.818182 442.181818c-11.636364 0-23.272727 4.654545-32.581818 13.963637L512 493.381818l-37.236364-37.236363c-18.618182-18.618182-46.545455-18.618182-65.163636 0-18.618182 18.618182-18.618182 46.545455 0 65.163636l69.818182 69.818182c18.618182 18.618182 46.545455 18.618182 65.163636 0l69.818182-69.818182c18.618182-18.618182 18.618182-46.545455 0-65.163636-9.309091-9.309091-20.945455-13.963636-32.581818-13.963637zM512 372.363636m-46.545455 0a46.545455 46.545455 0 1 1 93.09091 0 46.545455 46.545455 0 1 1-93.09091 0Z"  horiz-adv-x="1024" />

    
    <glyph glyph-name="yanzhengma1" unicode="&#59053;" d="M837.818182 11.636364H186.181818c-51.2 0-93.090909 41.890909-93.090909 93.090909v111.709091c0 25.6 20.945455 46.545455 46.545455 46.545454s46.545455-20.945455 46.545454-46.545454V104.727273h651.636364v111.709091c0 25.6 20.945455 46.545455 46.545454 46.545454s46.545455-20.945455 46.545455-46.545454V104.727273c0-51.2-41.890909-93.090909-93.090909-93.090909z m46.545454 486.4c-25.6 0-46.545455 20.945455-46.545454 46.545454V663.272727H186.181818v-116.363636c0-25.6-20.945455-46.545455-46.545454-46.545455s-46.545455 20.945455-46.545455 46.545455v116.363636c0 51.2 41.890909 93.090909 93.090909 93.090909h651.636364c51.2 0 93.090909-41.890909 93.090909-93.090909v-118.690909c0-25.6-20.945455-46.545455-46.545455-46.545454zM628.363636 337.454545H395.636364c-25.6 0-46.545455 20.945455-46.545455 46.545455s20.945455 46.545455 46.545455 46.545455h232.727272c25.6 0 46.545455-20.945455 46.545455-46.545455s-20.945455-46.545455-46.545455-46.545455z"  horiz-adv-x="1024" />

    
    <glyph glyph-name="back1" unicode="&#59054;" d="M330.472727 316.509091c-11.636364 0-23.272727 4.654545-32.581818 11.636364-18.618182 18.618182-18.618182 46.545455-2.327273 65.163636L663.272727 784.290909c18.618182 18.618182 46.545455 18.618182 65.163637 2.327273 18.618182-18.618182 18.618182-46.545455 2.327272-65.163637L363.054545 330.472727c-9.309091-9.309091-20.945455-13.963636-32.581818-13.963636zM698.181818-39.563636c-11.636364 0-23.272727 4.654545-32.581818 13.963636L297.890909 328.145455c-18.618182 18.618182-18.618182 46.545455 0 65.163636 18.618182 18.618182 46.545455 18.618182 65.163636 0l367.709091-356.072727c18.618182-18.618182 18.618182-46.545455 0-65.163637-9.309091-6.981818-20.945455-11.636364-32.581818-11.636363z"  horiz-adv-x="1024" />

    
    <glyph glyph-name="close1" unicode="&#59055;" d="M837.818182 11.636364c-11.636364 0-23.272727 4.654545-32.581818 13.963636l-651.636364 651.636364c-18.618182 18.618182-18.618182 46.545455 0 65.163636 18.618182 18.618182 46.545455 18.618182 65.163636 0l651.636364-651.636364c18.618182-18.618182 18.618182-46.545455 0-65.163636-9.309091-9.309091-20.945455-13.963636-32.581818-13.963636zM186.181818 16.290909c-11.636364 0-23.272727 4.654545-32.581818 13.963636-18.618182 18.618182-18.618182 46.545455 0 65.163637l651.636364 646.981818c18.618182 18.618182 46.545455 18.618182 65.163636 0 18.618182-18.618182 18.618182-46.545455 0-65.163636l-651.636364-646.981819c-9.309091-9.309091-20.945455-13.963636-32.581818-13.963636z"  horiz-adv-x="1024" />

    
    <glyph glyph-name="add1" unicode="&#59056;" d="M935.563636 337.454545H88.436364c-25.6 0-46.545455 20.945455-46.545455 46.545455s20.945455 46.545455 46.545455 46.545455h847.127272c25.6 0 46.545455-20.945455 46.545455-46.545455s-20.945455-46.545455-46.545455-46.545455zM512-86.109091c-25.6 0-46.545455 20.945455-46.545455 46.545455V807.563636c0 25.6 20.945455 46.545455 46.545455 46.545455s46.545455-20.945455 46.545455-46.545455v-847.127272c0-25.6-20.945455-46.545455-46.545455-46.545455z"  horiz-adv-x="1024" />

    
    <glyph glyph-name="arrow1" unicode="&#59057;" d="M672.768 431.616l-230.4 230.4c-25.6 25.6-66.048 25.6-91.648 0-22.016-25.6-22.016-66.048 0-91.648L537.6 384l-186.368-186.368c-25.6-25.6-25.6-66.048 0-91.648s66.048-25.6 91.648 0l230.4 230.4c13.312 13.312 19.456 30.72 18.944 47.616 0.512 16.896-6.144 34.304-19.456 47.616z"  horiz-adv-x="1024" />

    
    <glyph glyph-name="qingchu" unicode="&#59058;" d="M512 896C230.4 896 0 665.6 0 384s230.4-512 512-512 512 230.4 512 512S793.6 896 512 896z m204.8-665.6c14.628571-14.628571 14.628571-36.571429 0-51.2s-36.571429-14.628571-51.2 0L512 332.8l-153.6-153.6c-14.628571-14.628571-36.571429-14.628571-51.2 0-14.628571 14.628571-14.628571 36.571429 0 51.2l153.6 153.6-153.6 153.6c-14.628571 14.628571-14.628571 36.571429 0 51.2 14.628571 14.628571 36.571429 14.628571 51.2 0l153.6-153.6 153.6 153.6c14.628571 14.628571 36.571429 14.628571 51.2 0 14.628571-14.628571 14.628571-36.571429 0-51.2L563.2 384l153.6-153.6z"  horiz-adv-x="1024" />

    
    <glyph glyph-name="arrowxiangxia" unicode="&#59059;" d="M790.016 544.768c-25.6 22.016-66.048 22.016-91.648 0L512 358.4 325.632 544.768c-25.6 25.6-66.048 25.6-91.648 0s-25.6-66.048 0-91.648l230.4-230.4c13.312-13.312 30.72-19.456 47.616-18.944 16.896-0.512 34.304 5.632 47.616 18.944l230.4 230.4c25.6 26.112 25.6 66.048 0 91.648z"  horiz-adv-x="1024" />

    
    <glyph glyph-name="dianhua" unicode="&#59060;" d="M512-128C230.4-128 0 102.4 0 384S230.4 896 512 896s512-230.4 512-512-230.4-512-512-512z m0 930.909091C281.6 802.909091 93.090909 614.4 93.090909 384s188.509091-418.909091 418.909091-418.909091 418.909091 188.509091 418.909091 418.909091S742.4 802.909091 512 802.909091zM626.036364 335.127273c-25.6 0-41.890909-20.945455-65.163637-20.945455-20.945455 0-118.690909 95.418182-118.690909 118.690909s20.945455 34.909091 20.945455 58.181818c0 18.618182-65.163636 125.672727-93.090909 125.672728-25.6 0-93.090909-48.872727-93.090909-93.090909 0-128 235.054545-372.363636 384-372.363637 41.890909 0 93.090909 41.890909 93.090909 93.090909 2.327273 16.290909-104.727273 90.763636-128 90.763637"  horiz-adv-x="1024" />

    
    <glyph glyph-name="wodeyuyue" unicode="&#59061;" d="M343.04 358.4H245.76c-15.36 0-25.6-10.24-25.6-25.6s10.24-25.6 25.6-25.6h97.28c15.36 0 25.6 10.24 25.6 25.6s-10.24 25.6-25.6 25.6zM788.48 153.6H716.8v71.68c0 15.36-10.24 25.6-25.6 25.6s-25.6-10.24-25.6-25.6V128c0-15.36 10.24-25.6 25.6-25.6h97.28c15.36 0 25.6 10.24 25.6 25.6s-12.8 25.6-25.6 25.6zM704 409.6c-133.12 0-243.2-110.08-243.2-243.2s110.08-243.2 243.2-243.2 243.2 110.08 243.2 243.2-107.52 243.2-243.2 243.2z m0-435.2c-104.96 0-192 87.04-192 192s87.04 192 192 192 192-87.04 192-192-84.48-192-192-192zM337.92 76.8H179.2c-28.16 0-51.2 30.72-51.2 69.12V537.6h665.6v-74.24c0-15.36 10.24-25.6 25.6-25.6s25.6 12.8 25.6 25.6V665.6c0 71.68-48.64 128-104.96 128H691.2v23.04c0 15.36-10.24 25.6-25.6 25.6s-25.6-10.24-25.6-25.6V793.6H307.2v23.04c0 15.36-10.24 25.6-25.6 25.6s-25.6-10.24-25.6-25.6V793.6H189.44C128 793.6 76.8 739.84 76.8 670.72v-522.24C76.8 79.36 125.44 25.6 181.76 25.6h156.16c15.36 0 25.6 10.24 25.6 25.6s-10.24 25.6-25.6 25.6zM181.76 742.4H256v-23.04c0-15.36 10.24-25.6 25.6-25.6s25.6 10.24 25.6 25.6V742.4h332.8v-23.04c0-15.36 10.24-25.6 25.6-25.6s25.6 10.24 25.6 25.6V742.4h48.64C768 742.4 793.6 709.12 793.6 665.6v-76.8H128V665.6c0 43.52 25.6 76.8 53.76 76.8z"  horiz-adv-x="1024" />

    
    <glyph glyph-name="shezhi" unicode="&#59062;" d="M907.636364 430.545455h-25.6c-11.636364 102.4-65.163636 190.836364-144.290909 249.018181l16.290909 27.927273c13.963636 23.272727 4.654545 51.2-16.290909 62.836364s-51.2 6.981818-62.836364-13.963637l-16.290909-27.927272c9.309091-4.654545 18.618182-9.309091 25.6-11.636364C633.018182 740.072727 574.836364 756.363636 512 756.363636c-51.2 0-100.072727-9.309091-144.290909-27.927272L351.418182 756.363636c-11.636364 23.272727-41.890909 30.254545-62.836364 16.290909-23.272727-11.636364-30.254545-41.890909-16.290909-62.836363l16.290909-27.927273C209.454545 621.381818 155.927273 532.945455 141.963636 430.545455H116.363636c-25.6 0-46.545455-20.945455-46.545454-46.545455s20.945455-46.545455 46.545454-46.545455h25.6c11.636364-102.4 65.163636-190.836364 144.290909-249.018181l-16.290909-27.927273c-13.963636-23.272727-4.654545-51.2 16.290909-62.836364 6.981818-4.654545 16.290909-6.981818 23.272728-6.981818 16.290909 0 32.581818 9.309091 39.563636 23.272727l16.290909 27.927273c44.218182-18.618182 93.090909-30.254545 144.290909-30.254545s100.072727 9.309091 144.290909 27.927272l16.290909-27.927272c9.309091-13.963636 23.272727-23.272727 39.563637-23.272728 6.981818 0 16.290909 2.327273 23.272727 6.981819 23.272727 11.636364 30.254545 41.890909 16.290909 62.836363l-16.290909 27.927273c79.127273 58.181818 132.654545 148.945455 144.290909 251.345454H907.636364c25.6 0 46.545455 20.945455 46.545454 46.545455s-20.945455 46.545455-46.545454 46.545455zM705.163636 700.509091c-2.327273 2.327273-6.981818 4.654545-9.309091 6.981818 4.654545-2.327273 6.981818-4.654545 9.309091-6.981818z m-344.436363 23.272727c-6.981818-2.327273-13.963636-6.981818-18.618182-9.309091 6.981818 4.654545 11.636364 6.981818 18.618182 9.309091z m-32.581818-16.290909c-2.327273-2.327273-4.654545-2.327273-6.981819-4.654545 2.327273 2.327273 4.654545 2.327273 6.981819 4.654545zM139.636364 384c0 9.309091 0 18.618182 2.327272 30.254545-2.327273-11.636364-2.327273-20.945455-2.327272-30.254545s0-18.618182 2.327272-30.254545C139.636364 365.381818 139.636364 374.690909 139.636364 384z m200.145454-330.472727c9.309091-4.654545 16.290909-9.309091 25.6-11.636364-6.981818 2.327273-16.290909 6.981818-25.6 11.636364z m-20.945454 13.963636c2.327273-2.327273 6.981818-4.654545 9.309091-6.981818-4.654545 2.327273-6.981818 4.654545-9.309091 6.981818z m344.436363-23.272727c6.981818 2.327273 13.963636 6.981818 18.618182 9.309091-6.981818-4.654545-11.636364-6.981818-18.618182-9.309091z m32.581818 16.290909c2.327273 2.327273 4.654545 2.327273 6.981819 4.654545-2.327273-2.327273-4.654545-2.327273-6.981819-4.654545z m-186.181818 39.563636c-153.6 0-279.272727 125.672727-279.272727 279.272728s125.672727 279.272727 279.272727 279.272727 279.272727-125.672727 279.272728-279.272727-125.672727-279.272727-279.272728-279.272728z m372.363637 253.672728c0 9.309091 2.327273 18.618182 2.327272 30.254545 0 9.309091 0 18.618182-2.327272 30.254545 0-9.309091 2.327273-18.618182 2.327272-30.254545 0-9.309091 0-18.618182-2.327272-30.254545zM512 523.636364c-76.8 0-139.636364-62.836364-139.636364-139.636364s62.836364-139.636364 139.636364-139.636364 139.636364 62.836364 139.636364 139.636364-62.836364 139.636364-139.636364 139.636364z m0-186.181819c-25.6 0-46.545455 20.945455-46.545455 46.545455s20.945455 46.545455 46.545455 46.545455 46.545455-20.945455 46.545455-46.545455-20.945455-46.545455-46.545455-46.545455z"  horiz-adv-x="1024" />

    
    <glyph glyph-name="qingjia" unicode="&#59063;" d="M512 384m-512 0a512 512 0 1 1 1024 0 512 512 0 1 1-1024 0ZM716.8 322.56V204.8c0-35.84-29.44-64-65.28-64H372.48c-35.84 0-65.28 28.16-65.28 64V563.2c0 35.84 29.44 64 65.28 64h341.76l2.56-304.64zM614.4 245.76H409.6c-14.08 0-25.6 11.52-25.6 25.6s11.52 25.6 25.6 25.6h204.8c14.08 0 25.6-11.52 25.6-25.6s-11.52-25.6-25.6-25.6zM563.2 348.16H409.6c-14.08 0-25.6 11.52-25.6 25.6s11.52 25.6 25.6 25.6h153.6c14.08 0 25.6-11.52 25.6-25.6s-11.52-25.6-25.6-25.6zM486.4 450.56h-76.8c-14.08 0-25.6 11.52-25.6 25.6s11.52 25.6 25.6 25.6h76.8c14.08 0 25.6-11.52 25.6-25.6s-11.52-25.6-25.6-25.6zM819.2 512c0-64-51.2-115.2-115.2-115.2s-115.2 51.2-115.2 115.2 51.2 115.2 115.2 115.2 115.2-51.2 115.2-115.2M695.04 463.36c-6.4 0-11.52 2.56-16.64 6.4l-26.88 23.04c-10.24 8.96-11.52 25.6-2.56 35.84 8.96 10.24 25.6 11.52 35.84 2.56l8.96-7.68 33.28 32c10.24 10.24 26.88 8.96 35.84 0 10.24-10.24 8.96-26.88 0-35.84l-49.92-48.64c-5.12-5.12-11.52-7.68-17.92-7.68z"  horiz-adv-x="1024" />

    
    <glyph glyph-name="sousuo" unicode="&#59064;" d="M928.581818 32.581818l-181.527273 181.527273c48.872727 62.836364 79.127273 141.963636 79.127273 228.072727 0 204.8-167.563636 372.363636-372.363636 372.363637s-372.363636-167.563636-372.363637-372.363637 167.563636-372.363636 372.363637-372.363636c86.109091 0 165.236364 30.254545 228.072727 79.127273l181.527273-181.527273c9.309091-9.309091 20.945455-13.963636 32.581818-13.963637s23.272727 4.654545 32.581818 13.963637c18.618182 18.618182 18.618182 46.545455 0 65.163636zM174.545455 442.181818c0 153.6 125.672727 279.272727 279.272727 279.272727s279.272727-125.672727 279.272727-279.272727-125.672727-279.272727-279.272727-279.272727-279.272727 125.672727-279.272727 279.272727z"  horiz-adv-x="1024" />

    
    <glyph glyph-name="arrow1-left" unicode="&#59065;" d="M351.232 336.384l230.4-230.4c25.6-25.6 66.048-25.6 91.648 0 22.016 25.6 22.016 66.048 0 91.64799999L486.4 384l186.368 186.368c25.6 25.6 25.6 66.048 0 91.648s-66.048 25.6-91.648 0l-230.4-230.4c-13.312-13.312-19.456-30.72-18.944-47.616-0.512-16.896 6.144-34.304 19.456-47.616z"  horiz-adv-x="1024" />

    
    <glyph glyph-name="wodeqingjia" unicode="&#59066;" d="M670.72 542.72c-5.12 0-12.8 2.56-17.92 5.12l-81.92 71.68c-10.24 10.24-12.8 25.6-2.56 35.84 10.24 10.24 25.6 12.8 35.84 2.56l64-56.32 179.2 179.2c10.24 10.24 25.6 10.24 35.84 0s10.24-25.6 0-35.84l-197.12-197.12c-2.56-2.56-7.68-5.12-15.36-5.12zM399.36 261.12H307.2c-15.36 0-25.6 10.24-25.6 25.6s10.24 25.6 25.6 25.6h92.16c15.36 0 25.6-10.24 25.6-25.6s-12.8-25.6-25.6-25.6zM488.96 460.8H307.2c-15.36 0-25.6 10.24-25.6 25.6s10.24 25.6 25.6 25.6h181.76c15.36 0 25.6-10.24 25.6-25.6s-10.24-25.6-25.6-25.6zM844.8-51.2H179.2c-43.52 0-76.8 33.28-76.8 76.8V691.2c0 71.68 56.32 128 128 128h332.8c15.36 0 25.6-10.24 25.6-25.6s-10.24-25.6-25.6-25.6H230.4C186.88 768 153.6 734.72 153.6 691.2v-665.6c0-15.36 10.24-25.6 25.6-25.6h665.6c15.36 0 25.6 10.24 25.6 25.6V460.8c0 15.36 10.24 25.6 25.6 25.6s25.6-10.24 25.6-25.6v-435.2c0-43.52-33.28-76.8-76.8-76.8z"  horiz-adv-x="1024" />

    
    <glyph glyph-name="guanlianlaoren" unicode="&#59067;" d="M680.96 279.04c-7.68 0-12.8 2.56-17.92 7.68-10.24 10.24-10.24 25.6 0 35.84l135.68 135.68c56.32 56.32 56.32 145.92 0 199.68-56.32 56.32-145.92 56.32-199.68 0L463.36 522.24c-10.24-10.24-25.6-10.24-35.84 0s-10.24 25.6 0 35.84L563.2 693.76c74.24 74.24 194.56 74.24 271.36 0 74.24-74.24 74.24-197.12 0-273.92L698.88 284.16c-5.12-2.56-12.8-5.12-17.92-5.12z m-345.6-263.68c-48.64 0-99.84 17.92-135.68 56.32-74.24 74.24-74.24 197.12 0 273.92L332.8 478.72c10.24 10.24 25.6 10.24 35.84 0s10.24-25.6 0-35.84L232.96 307.2c-56.32-56.32-56.32-145.92 0-199.68 56.32-56.32 145.92-56.32 199.68 0L568.32 243.2c10.24 10.24 25.6 10.24 35.84 0s10.24-25.6 0-35.84L468.48 71.68c-33.28-38.4-84.48-56.32-133.12-56.32zM442.88 289.28c-7.68 0-12.8 2.56-17.92 7.68-10.24 10.24-10.24 25.6 0 35.84l145.92 145.92c10.24 10.24 25.6 10.24 35.84 0s10.24-25.6 0-35.84L460.8 296.96c-2.56-5.12-10.24-7.68-17.92-7.68z"  horiz-adv-x="1024" />

    
    <glyph glyph-name="hetongxinxi" unicode="&#59068;" d="M391.68 171.52c-7.68 0-15.36 2.56-20.48 7.68-10.24 7.68-15.36 20.48-12.8 33.28l20.48 117.76-84.48 81.92c-12.8 10.24-15.36 23.04-10.24 35.84 5.12 12.8 15.36 20.48 28.16 23.04l117.76 17.92 51.2 107.52c5.12 10.24 17.92 17.92 30.72 17.92s25.6-7.68 30.72-20.48l51.2-104.96 117.76-17.92c12.8-2.56 23.04-10.24 28.16-23.04 5.12-12.8 0-25.6-7.68-35.84l-84.48-81.92 20.48-117.76c2.56-12.8-2.56-25.6-12.8-33.28s-25.6-7.68-35.84-2.56L512 232.96l-104.96-56.32c-5.12-2.56-10.24-5.12-15.36-5.12z m15.36 33.28zM640 222.72z m-128 61.44c5.12 0 10.24-2.56 15.36-5.12l81.92-43.52-15.36 92.16c-2.56 10.24 2.56 23.04 10.24 30.72l66.56 66.56-92.16 12.8c-10.24 2.56-20.48 7.68-25.6 17.92L512 542.72l-40.96-84.48c-5.12-10.24-15.36-17.92-25.6-17.92l-92.16-12.8 66.56-66.56c7.68-7.68 12.8-20.48 10.24-30.72l-15.36-92.16 81.92 43.52c5.12 2.56 10.24 2.56 15.36 2.56z m-128 40.96z m-5.12 12.8z m317.44 112.64z m-97.28 30.72z m-71.68 92.16zM844.8-51.2H179.2c-43.52 0-76.8 33.28-76.8 76.8V691.2c0 71.68 56.32 128 128 128h563.2c71.68 0 128-56.32 128-128v-665.6c0-43.52-33.28-76.8-76.8-76.8zM230.4 768c-43.52 0-76.8-33.28-76.8-76.8v-665.6c0-15.36 10.24-25.6 25.6-25.6h665.6c15.36 0 25.6 10.24 25.6 25.6V691.2c0 43.52-33.28 76.8-76.8 76.8H230.4z"  horiz-adv-x="1024" />

    
    <glyph glyph-name="guanyuwomen" unicode="&#59069;" d="M512-51.2C271.36-51.2 76.8 143.36 76.8 384S271.36 819.2 512 819.2 947.2 624.64 947.2 384 752.64-51.2 512-51.2z m0 819.2c-212.48 0-384-171.52-384-384s171.52-384 384-384 384 171.52 384 384-171.52 384-384 384zM358.4 409.6c-15.36 0-25.6 10.24-25.6 25.6V512c0 15.36 10.24 25.6 25.6 25.6S384 527.36 384 512v-76.8c0-15.36-10.24-25.6-25.6-25.6z m358.4 0H640c-15.36 0-25.6 10.24-25.6 25.6V512c0 15.36 10.24 25.6 25.6 25.6s25.6-10.24 25.6-25.6v-51.2h51.2c15.36 0 25.6-10.24 25.6-25.6s-10.24-25.6-25.6-25.6zM499.2 128c-48.64 0-89.6 40.96-89.6 89.6v25.6c0 15.36 10.24 25.6 25.6 25.6s25.6-10.24 25.6-25.6v-25.6c0-20.48 17.92-38.4 38.4-38.4s38.4 17.92 38.4 38.4v25.6c0 15.36 10.24 25.6 25.6 25.6s25.6-10.24 25.6-25.6v-25.6c0-48.64-40.96-89.6-89.6-89.6z"  horiz-adv-x="1024" />

    
    <glyph glyph-name="pingjiamendian" unicode="&#59070;" d="M670.72 542.72c-7.68 0-12.8 2.56-17.92 7.68-10.24 10.24-10.24 25.6 0 35.84l197.12 197.12c10.24 10.24 25.6 10.24 35.84 0s10.24-25.6 0-35.84L688.64 550.4c-5.12-5.12-10.24-7.68-17.92-7.68z m-271.36-281.6H307.2c-15.36 0-25.6 10.24-25.6 25.6s10.24 25.6 25.6 25.6h92.16c15.36 0 25.6-10.24 25.6-25.6s-12.8-25.6-25.6-25.6z m89.6 199.68H307.2c-15.36 0-25.6 10.24-25.6 25.6s10.24 25.6 25.6 25.6h181.76c15.36 0 25.6-10.24 25.6-25.6s-10.24-25.6-25.6-25.6zM844.8-51.2H179.2c-43.52 0-76.8 33.28-76.8 76.8V691.2c0 71.68 56.32 128 128 128h332.8c15.36 0 25.6-10.24 25.6-25.6S578.56 768 563.2 768H230.4c-43.52 0-76.8-33.28-76.8-76.8v-665.6c0-15.36 10.24-25.6 25.6-25.6h665.6c15.36 0 25.6 10.24 25.6 25.6V460.8c0 15.36 10.24 25.6 25.6 25.6s25.6-10.24 25.6-25.6v-435.2c0-43.52-33.28-76.8-76.8-76.8z"  horiz-adv-x="1024" />

    
    <glyph glyph-name="keyongyue" unicode="&#59071;" d="M512-51.2C271.36-51.2 76.8 143.36 76.8 384S271.36 819.2 512 819.2 947.2 624.64 947.2 384 752.64-51.2 512-51.2z m0 819.2c-212.48 0-384-171.52-384-384s171.52-384 384-384 384 171.52 384 384-171.52 384-384 384zM511.155 402.765c-7.68 0-12.8 2.56-17.92 7.68l-89.6 92.16c-10.24 10.24-10.24 25.6 0 35.84s25.6 10.24 35.84 0l89.6-89.6c10.24-10.24 10.24-25.6 0-35.84-5.12-7.68-10.24-10.24-17.92-10.24zM511.155 402.765c-7.68 0-12.8 2.56-17.92 7.68-10.24 10.24-10.24 25.6 0 35.84l92.16 92.16c10.24 10.24 25.6 10.24 35.84 0s10.24-25.6 0-35.84l-92.16-92.16c-5.12-5.12-10.24-7.68-17.92-7.68zM511.155 131.405c-15.36 0-25.6 10.24-25.6 25.6v271.36c0 15.36 10.24 25.6 25.6 25.6s25.6-10.24 25.6-25.6v-273.92c0-12.8-10.24-23.04-25.6-23.04zM651.955 267.085h-273.92c-15.36 0-25.6 10.24-25.6 25.6s10.24 25.6 25.6 25.6h273.92c15.36 0 25.6-10.24 25.6-25.6s-10.24-25.6-25.6-25.6z"  horiz-adv-x="1024" />

    
    <glyph glyph-name="pingguguanli" unicode="&#59072;" d="M637.44 7.68c-7.68 0-12.8 2.56-17.92 7.68-10.24 10.24-10.24 25.6 0 35.84L844.8 276.48c10.24 10.24 25.6 10.24 35.84 0s10.24-25.6 0-35.84L655.36 15.36c-5.12-5.12-12.8-7.68-17.92-7.68zM435.2-51.2h-256c-43.52 0-76.8 33.28-76.8 76.8V691.2c0 71.68 56.32 128 128 128h563.2c71.68 0 128-56.32 128-128V448c0-15.36-10.24-25.6-25.6-25.6s-25.6 10.24-25.6 25.6V691.2c0 43.52-33.28 76.8-76.8 76.8H230.4c-43.52 0-76.8-33.28-76.8-76.8v-665.6c0-15.36 10.24-25.6 25.6-25.6h256c15.36 0 25.6-10.24 25.6-25.6s-10.24-25.6-25.6-25.6zM563.2 307.2H460.8c-15.36 0-25.6 10.24-25.6 25.6V435.2c0 15.36 10.24 25.6 25.6 25.6s25.6-10.24 25.6-25.6v-76.8h76.8c15.36 0 25.6-10.24 25.6-25.6s-10.24-25.6-25.6-25.6z"  horiz-adv-x="1024" />

    
    <glyph glyph-name="wodezhangdan" unicode="&#59073;" d="M844.8-51.2H179.2c-43.52 0-76.8 33.28-76.8 76.8V691.2c0 71.68 56.32 128 128 128h563.2c71.68 0 128-56.32 128-128v-665.6c0-43.52-33.28-76.8-76.8-76.8zM230.4 768c-43.52 0-76.8-33.28-76.8-76.8v-665.6c0-15.36 10.24-25.6 25.6-25.6h665.6c15.36 0 25.6 10.24 25.6 25.6V691.2c0 43.52-33.28 76.8-76.8 76.8H230.4zM501.76 256H307.2c-15.36 0-25.6 10.24-25.6 25.6s10.24 25.6 25.6 25.6h194.56c15.36 0 25.6-10.24 25.6-25.6s-12.8-25.6-25.6-25.6z m217.6 204.8H307.2c-15.36 0-25.6 10.24-25.6 25.6s10.24 25.6 25.6 25.6h412.16c15.36 0 25.6-10.24 25.6-25.6s-10.24-25.6-25.6-25.6z"  horiz-adv-x="1024" />

    
    <glyph glyph-name="jianhurenxinxi" unicode="&#59074;" d="M399.36 261.12H307.2c-15.36 0-25.6 10.24-25.6 25.6s10.24 25.6 25.6 25.6h92.16c15.36 0 25.6-10.24 25.6-25.6s-12.8-25.6-25.6-25.6z m89.6 199.68H307.2c-15.36 0-25.6 10.24-25.6 25.6s10.24 25.6 25.6 25.6h181.76c15.36 0 25.6-10.24 25.6-25.6s-10.24-25.6-25.6-25.6zM716.8 128c-56.32 0-102.4 46.08-102.4 102.4v51.2c0 56.32 46.08 102.4 102.4 102.4s102.4-46.08 102.4-102.4v-51.2c0-56.32-46.08-102.4-102.4-102.4z m0 204.8c-28.16 0-51.2-23.04-51.2-51.2v-51.2c0-28.16 23.04-51.2 51.2-51.2s51.2 23.04 51.2 51.2v51.2c0 28.16-23.04 51.2-51.2 51.2zM358.4-51.2H179.2c-43.52 0-76.8 33.28-76.8 76.8V691.2c0 71.68 56.32 128 128 128h563.2c71.68 0 128-56.32 128-128v-192c0-15.36-10.24-25.6-25.6-25.6s-25.6 10.24-25.6 25.6v192c0 43.52-33.28 76.8-76.8 76.8H230.4c-43.52 0-76.8-33.28-76.8-76.8v-665.6c0-15.36 10.24-25.6 25.6-25.6h179.2c15.36 0 25.6-10.24 25.6-25.6s-10.24-25.6-25.6-25.6zM844.8-51.2h-256c-43.52 0-76.8 33.28-76.8 76.8v25.6c0 56.32 46.08 102.4 102.4 102.4h204.8c56.32 0 102.4-46.08 102.4-102.4v-25.6c0-43.52-33.28-76.8-76.8-76.8zM614.4 102.4c-28.16 0-51.2-23.04-51.2-51.2v-25.6c0-15.36 10.24-25.6 25.6-25.6h256c15.36 0 25.6 10.24 25.6 25.6v25.6c0 28.16-23.04 51.2-51.2 51.2H614.4z"  horiz-adv-x="1024" />

    
    <glyph glyph-name="qingjiayidu" unicode="&#59075;" d="M0 384c0-282.624 229.376-512 512-512s512 229.376 512 512S794.624 896 512 896 0 666.624 0 384zM716.8 322.56v-117.76c0-35.84-29.696-64-65.536-64H372.736c-35.84 0-65.024 28.16-65.024 64V563.2c0 35.84 29.184 64 65.024 64h342.016l2.048-304.64zM614.4 245.76H409.6c-14.336 0-25.6 11.776-25.6 25.6s11.264 25.6 25.6 25.6h204.8c14.336 0 25.6-11.776 25.6-25.6s-11.264-25.6-25.6-25.6z m-51.2 102.4H409.6c-14.336 0-25.6 11.776-25.6 25.6s11.264 25.6 25.6 25.6h153.6c14.336 0 25.6-11.264 25.6-25.6s-11.776-25.6-25.6-25.6zM486.4 450.56H409.6c-13.824 0-25.6 11.264-25.6 25.6s11.264 25.6 25.6 25.6h76.8c14.336 0 25.6-11.264 25.6-25.6s-11.264-25.6-25.6-25.6zM819.2 512c0-64-51.2-115.2-115.2-115.2S588.8 448 588.8 512s51.2 115.2 115.2 115.2S819.2 576 819.2 512M695.296 463.36c-6.656 0-11.776 2.56-16.384 6.144l-27.136 23.04c-10.24 8.704-11.776 25.6-2.56 35.84 9.216 10.24 25.6 11.264 35.84 2.56l9.216-7.68 33.28 31.744c10.24 10.24 27.136 9.216 35.84 0 10.24-10.24 9.216-26.624 0-35.84l-50.176-48.64c-5.12-4.608-11.776-7.168-17.92-7.168z"  horiz-adv-x="1024" />

    
    <glyph glyph-name="yuqiyidu" unicode="&#59076;" d="M0 384c0-282.624 229.376-512 512-512s512 229.376 512 512S794.624 896 512 896 0 666.624 0 384zM716.8 445.44V563.2c0 35.84-29.696 64-65.536 64H372.736C336.896 627.2 307.2 599.04 307.2 563.2v-358.4c0-35.84 29.184-64 65.024-64h342.016L716.8 445.44zM614.4 473.6H409.6c-14.336 0-25.6 11.264-25.6 25.6s11.264 25.6 25.6 25.6h204.8c14.336 0 25.6-11.264 25.6-25.6 0-13.824-11.264-25.6-25.6-25.6z m-51.2-102.4H409.6c-14.336 0-25.6 11.776-25.6 25.6 0 14.336 11.264 25.6 25.6 25.6h153.6c14.336 0 25.6-11.264 25.6-25.6s-11.776-25.6-25.6-25.6z m-76.8-102.4H409.6c-13.824 0-25.6 11.264-25.6 25.6s11.264 25.6 25.6 25.6h76.8c14.336 0 25.6-11.264 25.6-25.6s-11.264-25.6-25.6-25.6zM819.2 256c0-64-51.2-115.2-115.2-115.2S588.8 192 588.8 256s51.2 115.2 115.2 115.2 115.2-51.2 115.2-115.2M744.96 209.92h-51.2c-14.336 0-25.6 11.264-25.6 25.6v51.2c0 14.336 11.776 25.6 25.6 25.6 14.336 0 25.6-11.776 25.6-25.6v-25.6h25.6c14.336 0 25.6-11.776 25.6-25.6s-11.776-25.6-25.6-25.6z"  horiz-adv-x="1024" />

    
    <glyph glyph-name="yiwancheng" unicode="&#59077;" d="M378.88 42.666667c-17.066667 0-34.133333 6.826667-47.786667 20.48l-276.48 266.24c-27.306667 27.306667-27.306667 68.266667-3.413333 95.573333 27.306667 27.306667 68.266667 27.306667 95.573333 3.413333l228.693334-221.866666L897.706667 704.853333c27.306667 27.306667 71.68 23.893333 95.573333-3.413333 27.306667-27.306667 23.893333-71.68-3.413333-95.573333l-566.613334-546.133334c-10.24-10.24-27.306667-17.066667-44.373333-17.066666z"  horiz-adv-x="1024" />

    
    <glyph glyph-name="bg" unicode="&#59078;" d="M246.656934 768.934307H119.591241c-65.775182 0-119.591241-53.816058-119.591241-119.591241v-657.751825c0-65.775182 53.816058-119.591241 119.591241-119.591241h4992.934306c65.775182 0 119.591241 53.816058 119.591241 119.591241v657.751825c0 65.775182-53.816058 119.591241-119.591241 119.591241H515.737226L402.125547 882.545985c-11.959124 11.959124-29.89781 11.959124-41.856934 0l-113.611679-113.611678z"  horiz-adv-x="5270" />

    
    <glyph glyph-name="yuangongkaoqin" unicode="&#59079;" d="M512 384m-512 0a512 512 0 1 1 1024 0 512 512 0 1 1-1024 0ZM486.4 460.8c71.68 0 128 56.32 128 128s-56.32 128-128 128-128-56.32-128-128 56.32-128 128-128z m0 204.8c43.52 0 76.8-33.28 76.8-76.8s-33.28-76.8-76.8-76.8-76.8 33.28-76.8 76.8 33.28 76.8 76.8 76.8zM537.6 128h-102.4c-15.36 0-25.6-10.24-25.6-25.6s10.24-25.6 25.6-25.6h102.4c15.36 0 25.6 10.24 25.6 25.6s-10.24 25.6-25.6 25.6zM660.48 417.28c-23.04 10.24-48.64 17.92-74.24 17.92h-197.12C302.08 435.2 230.4 368.64 230.4 286.72V102.4c0-15.36 10.24-25.6 25.6-25.6s25.6 10.24 25.6 25.6v184.32c0 53.76 48.64 97.28 104.96 97.28h197.12c7.68 0 15.36 0 20.48-2.56 17.92 15.36 35.84 28.16 56.32 35.84zM742.4 384c-84.48 0-153.6-69.12-153.6-153.6s69.12-153.6 153.6-153.6 153.6 69.12 153.6 153.6-69.12 153.6-153.6 153.6z m0-256c-56.32 0-102.4 46.08-102.4 102.4s46.08 102.4 102.4 102.4 102.4-46.08 102.4-102.4-46.08-102.4-102.4-102.4zM770.56 273.92l-33.28-33.28-7.68 7.68c-10.24 10.24-25.6 10.24-35.84 0s-10.24-25.6 0-35.84l25.6-25.6c5.12-5.12 12.8-7.68 17.92-7.68s12.8 2.56 17.92 7.68l51.2 51.2c10.24 10.24 10.24 25.6 0 35.84s-25.6 10.24-35.84 0z"  horiz-adv-x="1024" />

    


  </font>
</defs>
</svg>
